<svg width="30" height="30" viewBox="0 0 30 30" fill="none" xmlns="http://www.w3.org/2000/svg">
<path d="M22.7354 22.2921C20.8155 22.2921 19.2324 23.8415 19.2324 25.7951C19.2324 27.715 20.7818 29.298 22.7354 29.298C24.6552 29.298 26.2383 27.7486 26.2383 25.7951C26.2046 23.8752 24.6552 22.2921 22.7354 22.2921Z" fill="#F0F0F3"/>
<path d="M28.8992 5.58583C28.8318 5.58583 28.7308 5.55215 28.6298 5.55215H7.41005L7.07323 3.29545C6.87114 1.81344 5.59122 0.701935 4.07553 0.701935H1.34728C0.606277 0.701935 0 1.30821 0 2.04922C0 2.79022 0.606277 3.3965 1.34728 3.3965H4.07553C4.24394 3.3965 4.37867 3.53123 4.41235 3.69964L6.50064 17.9135C6.77009 19.6986 8.31947 21.0459 10.1383 21.0459H24.15C25.9015 21.0459 27.4172 19.7997 27.7877 18.0819L29.977 7.13521C30.1118 6.42789 29.6402 5.72056 28.8992 5.58583Z" fill="#F0F0F3"/>
<path d="M14.1464 25.6267C14.0791 23.7742 12.5297 22.2921 10.6772 22.2921C8.72362 22.3932 7.24161 24.0099 7.30897 25.9298C7.37633 27.7823 8.89203 29.2643 10.7445 29.2643H10.8119C12.7318 29.1633 14.2475 27.5465 14.1464 25.6267Z" fill="#F0F0F3"/>
</svg>
