<svg width="45" height="45" viewBox="0 0 45 45" fill="none" xmlns="http://www.w3.org/2000/svg">
<path d="M20.9649 44.9401L1.50525 33.7052V11.2351L20.9649 0L40.4246 11.2351V33.7052L20.9649 44.9401Z" fill="#C7AA92"/>
<path d="M20.9649 0L1.50525 11.2351L20.9649 22.4701V44.9401L40.4246 33.7052V11.2351L20.9649 0Z" fill="#BD9475"/>
<path d="M20.965 0V44.9401L40.4247 33.7052V11.2351L20.965 0Z" fill="#9E7957"/>
<path d="M20.965 22.4701V44.9401L40.4247 33.7052V11.2351L20.965 22.4701Z" fill="#936C4C"/>
<path d="M9.91504 6.37963L29.3746 17.6148L32.0149 16.0904L12.5553 4.85535L9.91504 6.37963Z" fill="#FFEA84"/>
<path d="M20.965 9.71077V12.7594L29.3747 17.6148L32.0149 16.0904L20.965 9.71077Z" fill="#FFDC40"/>
<path d="M33.3739 45C27.7933 45 23.2531 40.4598 23.2531 34.8791C23.2531 29.2984 27.7933 24.7583 33.3739 24.7583C38.9545 24.7583 43.4948 29.2984 43.4948 34.8791C43.4948 40.4598 38.9546 45 33.3739 45Z" fill="#8FE673"/>
<path d="M33.3777 24.7583V44.9999C38.9566 44.998 43.4949 40.4585 43.4949 34.879C43.4949 29.2996 38.9566 24.7604 33.3777 24.7583Z" fill="#76CC5B"/>
<path d="M32.1917 39.12L28.3833 35.3501L30.2408 33.4738L32.1771 35.3906L36.4998 31.0439L38.3718 32.9058L32.1917 39.12Z" fill="white"/>
<path d="M33.3777 37.9276L38.3719 32.9058L36.4999 31.0439L33.3777 34.1835V37.9276Z" fill="#F2F2F4"/>
</svg>
