<svg width="26" height="39" viewBox="0 0 26 39" fill="none" xmlns="http://www.w3.org/2000/svg">
<path d="M12.5684 0C5.63817 0 0 5.63817 0 12.5684C0 22.0727 11.2807 33.6152 11.7606 34.0949C11.9837 34.3181 12.2761 34.4297 12.5684 34.4297C12.8606 34.4297 13.1531 34.3181 13.3762 34.0949C13.856 33.6152 25.1367 22.0727 25.1367 12.5684C25.1367 5.63817 19.4986 0 12.5684 0Z" fill="#EA728C"/>
<path d="M25.1367 12.5684C25.1367 5.63817 19.4986 0 12.5684 0V34.4297C12.8607 34.4297 13.1531 34.3181 13.3762 34.0949C13.856 33.6152 25.1367 22.0727 25.1367 12.5684Z" fill="#FFB8B8"/>
<path d="M19.4238 36.7148H12.5684H5.71289C5.08135 36.7148 4.57031 37.2259 4.57031 37.8574C4.57031 38.489 5.08135 39 5.71289 39H12.5684H19.4238C20.0554 39 20.5664 38.489 20.5664 37.8574C20.5664 37.2259 20.0554 36.7148 19.4238 36.7148Z" fill="#4F3961"/>
<path d="M20.5664 37.8574C20.5664 37.2259 20.0554 36.7148 19.4238 36.7148H12.5684V39H19.4238C20.0554 39 20.5664 38.489 20.5664 37.8574Z" fill="#AE88CE"/>
<path d="M12.5684 8.2265L6.85547 12.0426V19.5C6.85547 20.1398 7.35813 20.6426 7.99805 20.6426H12.5684H17.1387C17.7786 20.6426 18.2812 20.1398 18.2812 19.5V12.0427L12.5684 8.2265Z" fill="#F0F7FF"/>
<path d="M18.2812 19.5V12.0427L12.5684 8.22656V20.6426H17.1387C17.7786 20.6426 18.2812 20.1398 18.2812 19.5Z" fill="#DFE7F4"/>
<path d="M20.0576 11.6178L13.2021 7.04747C13.0101 6.91912 12.7892 6.85498 12.5683 6.85498C12.3474 6.85498 12.1265 6.91912 11.9346 7.04747L5.07912 11.6178C4.55361 11.9682 4.41186 12.6766 4.76225 13.2022C5.1115 13.7255 5.81669 13.8661 6.3467 13.5191L12.5683 9.37162L18.7901 13.519C19.3244 13.8732 20.0301 13.7196 20.3745 13.2022C20.7248 12.6766 20.5831 11.9681 20.0576 11.6178Z" fill="#979FEF"/>
<path d="M20.3745 13.2021C20.7248 12.6766 20.5831 11.968 20.0576 11.6177L13.2021 7.04734C13.0102 6.919 12.7893 6.85486 12.5684 6.85486V9.37158L18.7901 13.519C19.3243 13.8732 20.0302 13.7196 20.3745 13.2021Z" fill="#6B77E8"/>
</svg>
