<svg width="30" height="30" viewBox="0 0 30 30" fill="none" xmlns="http://www.w3.org/2000/svg">
<g clip-path="url(#clip0)">
<path d="M29.4962 13.4112L16.0361 1.1465C15.4453 0.608087 14.5544 0.608146 13.9639 1.14645L0.503791 13.4113C0.0305299 13.8425 -0.125798 14.507 0.105413 15.104C0.336682 15.701 0.899767 16.0867 1.54002 16.0867H3.68982V28.375C3.68982 28.8622 4.08486 29.2573 4.57206 29.2573H11.9498C12.437 29.2573 12.8321 28.8623 12.8321 28.375V20.9139H17.1681V28.3751C17.1681 28.8623 17.5632 29.2573 18.0504 29.2573H25.4278C25.915 29.2573 26.31 28.8624 26.31 28.3751V16.0867H28.4602C29.1004 16.0867 29.6636 15.7009 29.8948 15.104C30.1257 14.5069 29.9694 13.8425 29.4962 13.4112Z" fill="#F0F0F3"/>
<path d="M26.0795 2.50369H20.1546L26.9618 8.69329V3.38588C26.9618 2.89867 26.5668 2.50369 26.0795 2.50369Z" fill="#F0F0F3"/>
</g>
<defs>
<clipPath id="clip0">
<rect width="30" height="30" fill="white"/>
</clipPath>
</defs>
</svg>
