<svg width="297" height="248" viewBox="0 0 297 248" fill="none" xmlns="http://www.w3.org/2000/svg">
<path d="M38.0188 46.7303H33.3232C33.1581 46.7303 32.9998 46.7959 32.883 46.9127C32.7663 47.0296 32.7007 47.188 32.7007 47.3532V49.4155C32.7007 49.5807 32.7663 49.7391 32.883 49.8559C32.9998 49.9727 33.1581 50.0384 33.3232 50.0384H34.1014V53.1284H37.2407V50.0384H38.0188C38.1839 50.0384 38.3423 49.9727 38.459 49.8559C38.5758 49.7391 38.6413 49.5807 38.6413 49.4155V47.3532C38.6413 47.188 38.5758 47.0296 38.459 46.9127C38.3423 46.7959 38.1839 46.7303 38.0188 46.7303Z" fill="#EA728C"/>
<path d="M42.7219 65.6041C39.8462 61.3937 38.3761 56.3805 38.5222 51.2828C38.5248 51.1652 38.4866 51.0503 38.4142 50.9576C38.3418 50.8649 38.2395 50.8002 38.1248 50.7744V49.8833H33.1656V50.762H33.0973C32.9623 50.7622 32.833 50.816 32.7377 50.9116C32.6424 51.0072 32.5889 51.1368 32.5891 51.2719C32.5891 51.2842 32.5896 51.2966 32.5905 51.3089C32.9812 56.7583 31.6619 61.6452 28.6327 65.9696C28.4584 66.2181 28.3693 66.5165 28.3789 66.82L28.9212 83.6037C28.9342 83.978 29.0912 84.3329 29.3595 84.5942C29.6277 84.8555 29.9864 85.003 30.3608 85.006H41.5776C41.9563 85.0029 42.3187 84.852 42.5878 84.5854C42.8568 84.3189 43.0113 83.9578 43.0181 83.579L43.2271 67.2834C43.2333 66.6852 43.0571 66.0995 42.7219 65.6041Z" fill="#EA728C"/>
<path d="M40.9463 71.1792H31.1829C31.0384 71.1792 30.8956 71.2104 30.7642 71.2708C30.6329 71.3312 30.5162 71.4193 30.4221 71.5291C30.328 71.6388 30.2587 71.7677 30.2191 71.9067C30.1794 72.0458 30.1702 72.1917 30.1922 72.3347L31.6676 81.9305H40.1394L41.9315 72.367C41.9587 72.2222 41.9536 72.0731 41.9166 71.9304C41.8796 71.7878 41.8117 71.655 41.7176 71.5416C41.6236 71.4282 41.5057 71.3369 41.3724 71.2743C41.2391 71.2116 41.0936 71.1792 40.9463 71.1792Z" fill="white"/>
<path d="M90.2896 97.0079H85.594C85.4289 97.0079 85.2706 97.0736 85.1538 97.1904C85.0371 97.3072 84.9715 97.4656 84.9715 97.6309V99.6931C84.9715 99.8583 85.0371 100.017 85.1538 100.134C85.2706 100.25 85.4289 100.316 85.594 100.316H86.3721V103.406H89.5114V100.316H90.2896C90.4547 100.316 90.613 100.25 90.7298 100.134C90.8465 100.017 90.9121 99.8583 90.9121 99.6931V97.6309C90.9121 97.4656 90.8465 97.3072 90.7298 97.1904C90.613 97.0736 90.4547 97.0079 90.2896 97.0079Z" fill="#EA728C"/>
<path d="M94.9927 115.882C92.117 111.671 90.6469 106.658 90.7929 101.56C90.7955 101.443 90.7574 101.328 90.685 101.235C90.6125 101.143 90.5102 101.078 90.3955 101.052V100.161H85.4364V101.04H85.3681C85.3012 101.04 85.2351 101.053 85.1734 101.079C85.1117 101.104 85.0556 101.142 85.0084 101.189C84.9612 101.237 84.9238 101.293 84.8983 101.355C84.8728 101.416 84.8598 101.483 84.8599 101.55C84.8599 101.562 84.8603 101.574 84.8613 101.587C85.2519 107.036 83.9327 111.923 80.9035 116.247C80.7291 116.496 80.6401 116.794 80.6497 117.098L81.1919 133.881C81.205 134.256 81.362 134.611 81.6302 134.872C81.8985 135.133 82.2572 135.281 82.6316 135.284H93.8484C94.227 135.281 94.5895 135.13 94.8585 134.863C95.1276 134.597 95.282 134.235 95.2889 133.857L95.4979 117.561C95.504 116.963 95.3278 116.377 94.9927 115.882Z" fill="#EA728C"/>
<path d="M93.217 121.457H83.4537C83.3091 121.457 83.1663 121.488 83.035 121.548C82.9037 121.609 82.787 121.697 82.6929 121.807C82.5988 121.916 82.5295 122.045 82.4898 122.184C82.4501 122.323 82.441 122.469 82.4629 122.612L83.9383 132.208H92.4102L94.2023 122.645C94.2294 122.5 94.2243 122.351 94.1874 122.208C94.1504 122.065 94.0825 121.933 93.9884 121.819C93.8943 121.706 93.7764 121.615 93.6431 121.552C93.5098 121.489 93.3643 121.457 93.2171 121.457H93.217Z" fill="white"/>
<path d="M31.4174 168.086H29.1901C29.1118 168.086 29.0367 168.117 28.9813 168.172C28.9259 168.228 28.8948 168.303 28.8948 168.381V169.359C28.8948 169.438 28.9259 169.513 28.9813 169.568C29.0367 169.624 29.1118 169.655 29.1901 169.655H29.5592V171.121H31.0483V169.655H31.4174C31.4958 169.655 31.5709 169.624 31.6263 169.568C31.6816 169.513 31.7127 169.438 31.7127 169.359V168.381C31.7127 168.303 31.6816 168.228 31.6263 168.172C31.5709 168.117 31.4958 168.086 31.4174 168.086Z" fill="#EA728C"/>
<path d="M33.6484 177.039C32.2843 175.041 31.5869 172.663 31.6562 170.245C31.6575 170.189 31.6394 170.135 31.605 170.091C31.5706 170.047 31.5221 170.016 31.4677 170.004V169.581H29.1154V169.998H29.083C29.0513 169.998 29.0199 170.005 28.9906 170.017C28.9613 170.029 28.9348 170.047 28.9124 170.069C28.89 170.092 28.8722 170.118 28.8602 170.148C28.8481 170.177 28.8419 170.208 28.8419 170.24C28.8419 170.246 28.8421 170.252 28.8426 170.258C29.0597 172.725 28.3944 175.189 26.9652 177.212C26.8825 177.33 26.8403 177.471 26.8448 177.615L27.102 185.577C27.1082 185.754 27.1827 185.922 27.3099 186.046C27.4372 186.17 27.6073 186.24 27.7849 186.242H33.1056C33.2852 186.24 33.4571 186.169 33.5847 186.042C33.7124 185.916 33.7856 185.744 33.7889 185.565L33.888 177.835C33.8909 177.551 33.8073 177.273 33.6484 177.039Z" fill="#EA728C"/>
<path d="M32.8826 179.965H27.8058V182.505H32.8826V179.965Z" fill="white"/>
<path d="M41.7857 168.086H39.5584C39.4801 168.086 39.4049 168.117 39.3496 168.172C39.2942 168.228 39.2631 168.303 39.2631 168.381V169.359C39.2631 169.438 39.2942 169.513 39.3496 169.568C39.4049 169.624 39.4801 169.655 39.5584 169.655H39.9275V171.121H41.4166V169.655H41.7857C41.864 169.655 41.9391 169.624 41.9945 169.568C42.0499 169.513 42.081 169.438 42.081 169.359V168.381C42.081 168.303 42.0499 168.228 41.9945 168.172C41.9391 168.117 41.864 168.086 41.7857 168.086Z" fill="#EA728C"/>
<path d="M44.0166 177.039C42.6525 175.041 41.9552 172.663 42.0245 170.245C42.0257 170.189 42.0076 170.135 41.9732 170.091C41.9389 170.047 41.8904 170.016 41.836 170.004V169.581H39.4836V169.998H39.4512C39.4195 169.998 39.3881 170.005 39.3588 170.017C39.3296 170.029 39.303 170.047 39.2806 170.069C39.2582 170.092 39.2405 170.118 39.2284 170.148C39.2163 170.177 39.2101 170.208 39.2101 170.24C39.2101 170.246 39.2104 170.252 39.2108 170.258C39.4279 172.725 38.7626 175.189 37.3334 177.212C37.2508 177.33 37.2085 177.471 37.2131 177.615L37.4703 185.577C37.4764 185.754 37.5509 185.922 37.6782 186.046C37.8054 186.17 37.9756 186.24 38.1531 186.242H43.4738C43.6534 186.24 43.8253 186.169 43.953 186.042C44.0806 185.916 44.1538 185.744 44.1571 185.565L44.2562 177.835C44.2592 177.551 44.1756 177.273 44.0166 177.039Z" fill="#EA728C"/>
<path d="M43.2508 179.965H38.1741V182.505H43.2508V179.965Z" fill="white"/>
<path d="M52.1539 168.086H49.9266C49.8483 168.086 49.7732 168.117 49.7178 168.172C49.6624 168.228 49.6313 168.303 49.6313 168.381V169.359C49.6313 169.438 49.6624 169.513 49.7178 169.568C49.7732 169.624 49.8483 169.655 49.9266 169.655H50.2957V171.121H51.7848V169.655H52.1539C52.2323 169.655 52.3074 169.624 52.3628 169.568C52.4181 169.513 52.4492 169.438 52.4492 169.359V168.381C52.4492 168.303 52.4181 168.228 52.3628 168.172C52.3074 168.117 52.2323 168.086 52.1539 168.086Z" fill="#EA728C"/>
<path d="M54.3848 177.039C53.0208 175.041 52.3234 172.663 52.3927 170.245C52.394 170.189 52.3758 170.135 52.3415 170.091C52.3071 170.047 52.2586 170.016 52.2042 170.004V169.581H49.8518V169.998H49.8194C49.7877 169.998 49.7564 170.005 49.7271 170.017C49.6978 170.029 49.6712 170.047 49.6489 170.069C49.6265 170.092 49.6087 170.118 49.5966 170.148C49.5845 170.177 49.5783 170.208 49.5784 170.24C49.5784 170.246 49.5786 170.252 49.579 170.258C49.7962 172.725 49.1309 175.189 47.7017 177.212C47.619 177.33 47.5768 177.471 47.5813 177.615L47.8385 185.577C47.8447 185.754 47.9192 185.922 48.0464 186.046C48.1736 186.17 48.3438 186.24 48.5214 186.242H53.842C54.0216 186.24 54.1936 186.169 54.3212 186.042C54.4488 185.916 54.5221 185.744 54.5253 185.565L54.6245 177.835C54.6274 177.551 54.5438 177.273 54.3848 177.039Z" fill="#EA728C"/>
<path d="M53.6191 179.965H48.5423V182.505H53.6191V179.965Z" fill="white"/>
<path d="M82.1323 148.635H77.4367C77.355 148.635 77.274 148.651 77.1985 148.683C77.123 148.714 77.0543 148.76 76.9965 148.818C76.9387 148.876 76.8929 148.944 76.8616 149.02C76.8303 149.095 76.8142 149.176 76.8142 149.258V151.321C76.8142 151.486 76.8798 151.644 76.9965 151.761C77.1133 151.878 77.2716 151.943 77.4367 151.943H78.2149V155.033H81.3542V151.943H82.1323C82.2974 151.943 82.4557 151.878 82.5725 151.761C82.6892 151.644 82.7548 151.486 82.7548 151.321V149.258C82.7548 149.176 82.7387 149.095 82.7074 149.02C82.6762 148.944 82.6303 148.876 82.5725 148.818C82.5147 148.76 82.4461 148.714 82.3705 148.683C82.295 148.651 82.214 148.635 82.1323 148.635Z" fill="#EA728C"/>
<path d="M86.8354 167.509C83.9597 163.299 82.4896 158.286 82.6357 153.188C82.6383 153.07 82.6001 152.955 82.5277 152.863C82.4552 152.77 82.353 152.705 82.2382 152.679V151.788H77.2791V152.667H77.2108C77.1439 152.667 77.0778 152.68 77.0161 152.706C76.9544 152.732 76.8983 152.769 76.8512 152.817C76.804 152.864 76.7666 152.92 76.7411 152.982C76.7156 153.044 76.7025 153.11 76.7026 153.177C76.7026 153.189 76.7031 153.202 76.704 153.214C77.0947 158.663 75.7754 163.55 72.7462 167.875C72.5719 168.123 72.4828 168.422 72.4924 168.725L73.0347 185.509C73.0477 185.883 73.2047 186.238 73.4729 186.499C73.7412 186.761 74.0999 186.908 74.4743 186.911H85.6911C86.0697 186.908 86.4322 186.757 86.7013 186.49C86.9703 186.224 87.1247 185.863 87.1316 185.484L87.3406 169.188C87.3468 168.59 87.1705 168.005 86.8354 167.509Z" fill="#EA728C"/>
<path d="M85.0598 173.084H75.2964C75.1518 173.084 75.009 173.115 74.8777 173.176C74.7464 173.236 74.6297 173.324 74.5356 173.434C74.4415 173.544 74.3722 173.673 74.3325 173.812C74.2928 173.951 74.2836 174.097 74.3056 174.24L75.781 183.836H84.2529L86.045 174.272C86.0721 174.127 86.067 173.978 86.0301 173.835C85.9931 173.693 85.9252 173.56 85.8311 173.447C85.737 173.333 85.6192 173.242 85.4858 173.179C85.3525 173.117 85.2071 173.084 85.0598 173.084Z" fill="white"/>
<path d="M84.6957 87.1666H56.7056C58.6625 76.5802 58.2123 63.7967 56.7056 50.0489H84.6957C83.2291 63.7967 82.7909 76.5802 84.6957 87.1666Z" fill="#EA728C"/>
<path d="M70.8693 74.3442C74.5942 74.3442 77.6139 71.3227 77.6139 67.5955C77.6139 63.8683 74.5942 60.8468 70.8693 60.8468C67.1443 60.8468 64.1247 63.8683 64.1247 67.5955C64.1247 71.3227 67.1443 74.3442 70.8693 74.3442Z" fill="white"/>
<path d="M59.0662 136.432H31.0761C33.033 125.846 32.5827 113.062 31.0761 99.3142H59.0662C57.5996 113.062 57.1613 125.846 59.0662 136.432Z" fill="#EA728C"/>
<path d="M45.2397 123.609C48.9647 123.609 51.9844 120.588 51.9844 116.861C51.9844 113.134 48.9647 110.112 45.2397 110.112C41.5148 110.112 38.4951 113.134 38.4951 116.861C38.4951 120.588 41.5148 123.609 45.2397 123.609Z" fill="white"/>
<path d="M100.546 89.5287H72.5555C74.5123 78.9422 74.0621 66.1587 72.5555 52.4109H100.546C99.079 66.1588 98.6407 78.9422 100.546 89.5287Z" fill="#EA728C"/>
<path d="M86.7191 76.7062C90.4441 76.7062 93.4637 73.6847 93.4637 69.9575C93.4637 66.2303 90.4441 63.2088 86.7191 63.2088C82.9942 63.2088 79.9745 66.2303 79.9745 69.9575C79.9745 73.6847 82.9942 76.7062 86.7191 76.7062Z" fill="white"/>
<path d="M100.546 87.8415H72.5555C74.5123 77.2551 74.0621 64.4716 72.5555 50.7238H100.546C99.079 64.4716 98.6407 77.2551 100.546 87.8415Z" fill="#EA728C"/>
<path d="M86.7191 75.019C90.4441 75.019 93.4637 71.9975 93.4637 68.2703C93.4637 64.5432 90.4441 61.5217 86.7191 61.5217C82.9942 61.5217 79.9745 64.5432 79.9745 68.2703C79.9745 71.9975 82.9942 75.019 86.7191 75.019Z" fill="white"/>
<path d="M100.546 89.5287H72.5555C74.5123 78.9422 74.0621 66.1587 72.5555 52.4109H100.546C99.079 66.1588 98.6407 78.9422 100.546 89.5287Z" fill="#EA728C"/>
<path d="M86.7191 76.7062C90.4441 76.7062 93.4637 73.6847 93.4637 69.9575C93.4637 66.2303 90.4441 63.2088 86.7191 63.2088C82.9942 63.2088 79.9745 66.2303 79.9745 69.9575C79.9745 73.6847 82.9942 76.7062 86.7191 76.7062Z" fill="white"/>
<path d="M106.953 85.142H15.2262V95.2651H106.953V85.142Z" fill="#EA728C"/>
<path d="M106.953 135.42H15.2262V145.543H106.953V135.42Z" fill="#EA728C"/>
<path d="M106.953 185.697H15.2262V195.82H106.953V185.697Z" fill="#EA728C"/>
<path d="M266.516 226.766L243.664 210.593C251.371 203.081 258.381 192.384 265.084 180.289L287.936 196.462C278.805 206.839 271.07 217.022 266.516 226.766Z" fill="#F3D4D4"/>
<path d="M266.522 209.547C270.247 209.547 273.266 206.526 273.266 202.799C273.266 199.071 270.247 196.05 266.522 196.05C262.797 196.05 259.777 199.071 259.777 202.799C259.777 206.526 262.797 209.547 266.522 209.547Z" fill="white"/>
<path d="M156.28 152.966H153.772C153.684 152.966 153.599 153.001 153.537 153.064C153.474 153.126 153.439 153.211 153.439 153.299V154.401C153.439 154.444 153.448 154.488 153.465 154.528C153.481 154.568 153.506 154.605 153.537 154.636C153.568 154.667 153.604 154.691 153.645 154.708C153.685 154.725 153.728 154.734 153.772 154.734H154.188V156.384H155.865V154.734H156.28C156.369 154.734 156.453 154.698 156.515 154.636C156.578 154.574 156.613 154.489 156.613 154.401V153.299C156.613 153.211 156.578 153.126 156.515 153.064C156.453 153.001 156.369 152.966 156.28 152.966Z" fill="#EA728C"/>
<path d="M158.793 163.049C157.257 160.8 156.471 158.122 156.549 155.398C156.551 155.335 156.53 155.274 156.492 155.225C156.453 155.175 156.398 155.14 156.337 155.127V154.651H153.688V155.12H153.651C153.616 155.12 153.58 155.127 153.547 155.141C153.514 155.155 153.484 155.175 153.459 155.2C153.434 155.225 153.414 155.255 153.4 155.288C153.387 155.321 153.38 155.357 153.38 155.392C153.38 155.399 153.38 155.406 153.38 155.412C153.625 158.191 152.876 160.966 151.266 163.244C151.173 163.377 151.125 163.536 151.131 163.698L151.42 172.665C151.427 172.865 151.511 173.054 151.654 173.194C151.798 173.333 151.989 173.412 152.189 173.414H158.182C158.384 173.412 158.577 173.331 158.721 173.189C158.865 173.047 158.947 172.854 158.951 172.651L159.063 163.946C159.066 163.626 158.972 163.314 158.793 163.049Z" fill="#F3D4D4"/>
<path opacity="0.2" d="M155.757 153.325C155.757 153.516 155.682 153.698 155.547 153.833C155.413 153.968 155.23 154.043 155.04 154.043C154.85 154.043 154.667 153.968 154.533 153.833C154.398 153.698 154.322 153.516 154.322 153.325" fill="black"/>
<path d="M157.626 164.776H152.567V168.151H157.626V164.776Z" fill="white"/>
<path d="M235.661 187.993H230.965C230.8 187.993 230.642 188.059 230.525 188.176C230.408 188.292 230.343 188.451 230.343 188.616V190.678C230.343 190.843 230.408 191.002 230.525 191.119C230.642 191.236 230.8 191.301 230.965 191.301H231.744V194.391H234.883V191.301H235.661C235.826 191.301 235.984 191.236 236.101 191.119C236.218 191.002 236.283 190.843 236.283 190.678V188.616C236.283 188.451 236.218 188.292 236.101 188.176C235.984 188.059 235.826 187.993 235.661 187.993Z" fill="#EA728C"/>
<path d="M240.364 206.867C237.488 202.656 236.018 197.643 236.164 192.546C236.167 192.428 236.129 192.313 236.056 192.22C235.984 192.128 235.882 192.063 235.767 192.037V191.146H230.808V192.025H230.739C230.673 192.025 230.606 192.038 230.545 192.064C230.483 192.09 230.427 192.127 230.38 192.174C230.333 192.222 230.295 192.278 230.27 192.34C230.244 192.402 230.231 192.468 230.231 192.535C230.231 192.547 230.232 192.559 230.233 192.572C230.623 198.021 229.304 202.908 226.275 207.232C226.101 207.481 226.011 207.779 226.021 208.083L226.563 224.866C226.576 225.241 226.733 225.596 227.002 225.857C227.27 226.118 227.629 226.266 228.003 226.269H239.22C239.598 226.266 239.961 226.115 240.23 225.848C240.499 225.582 240.653 225.221 240.66 224.842L240.869 208.546C240.875 207.948 240.699 207.362 240.364 206.867Z" fill="#F3D4D4"/>
<path opacity="0.2" d="M234.682 188.665C234.682 189.022 234.541 189.363 234.289 189.615C234.037 189.867 233.695 190.009 233.339 190.009C232.983 190.009 232.641 189.867 232.389 189.615C232.137 189.363 231.996 189.022 231.996 188.665" fill="black"/>
<path d="M238.588 212.442H228.825C228.681 212.442 228.538 212.473 228.406 212.534C228.275 212.594 228.158 212.682 228.064 212.792C227.97 212.902 227.901 213.03 227.861 213.17C227.821 213.309 227.812 213.455 227.834 213.597L229.31 223.193H237.782L239.574 213.63C239.601 213.485 239.596 213.336 239.559 213.193C239.522 213.051 239.454 212.918 239.36 212.804C239.266 212.691 239.148 212.6 239.014 212.537C238.881 212.474 238.736 212.442 238.588 212.442Z" fill="white"/>
<path d="M222.264 226.74H194.274C196.23 216.153 195.78 203.37 194.274 189.622H222.264C220.797 203.37 220.359 216.153 222.264 226.74Z" fill="#F3D4D4"/>
<path d="M208.437 213.917C212.162 213.917 215.182 210.896 215.182 207.168C215.182 203.441 212.162 200.42 208.437 200.42C204.712 200.42 201.693 203.441 201.693 207.168C201.693 210.896 204.712 213.917 208.437 213.917Z" fill="white"/>
<path d="M107.777 109.925L114.061 109.353L118.06 99.6366L110.919 95.6354L107.777 109.925Z" fill="#FFB8B8"/>
<path d="M165.444 136.6C165.653 136.079 165.735 135.515 165.683 134.956C165.632 134.396 165.448 133.857 165.148 133.383C164.847 132.908 164.438 132.512 163.955 132.227C163.471 131.941 162.927 131.775 162.366 131.742L152.61 131.16L151.174 135.939L161.217 138.699C162.056 138.93 162.951 138.843 163.731 138.456C164.51 138.069 165.12 137.408 165.444 136.6Z" fill="#FFB8B8"/>
<path d="M154.968 138.78L154.861 129.811L133.19 126.351L116.495 107.192C115.627 106.196 114.427 105.548 113.117 105.368C111.808 105.189 110.478 105.491 109.373 106.218C108.705 106.658 108.141 107.24 107.722 107.922C107.303 108.604 107.038 109.37 106.948 110.165C106.857 110.961 106.942 111.767 107.196 112.526C107.451 113.285 107.869 113.979 108.421 114.558L122.194 131.518L154.968 138.78Z" fill="#4F3961"/>
<path d="M102.922 239.673H108.634L122.803 175.574L137.481 195.376L146.05 238.244H151.477L150.334 192.232L131.198 143.076H112.347C107.196 152.405 103.155 162.021 107.777 171.941L102.922 239.673Z" fill="#2F2E41"/>
<path d="M142.548 243.566C142.485 243.769 142.466 243.982 142.491 244.192C142.517 244.403 142.587 244.605 142.697 244.786C142.807 244.967 142.954 245.123 143.129 245.242C143.304 245.362 143.502 245.443 143.711 245.48L157.689 247.962C158.241 248.063 158.811 247.959 159.292 247.668C159.773 247.378 160.13 246.921 160.298 246.385C160.461 245.872 160.438 245.319 160.234 244.822C160.029 244.324 159.656 243.915 159.18 243.666C156.106 242.086 153.461 239.785 151.471 236.959C149.935 238.391 148.218 238.256 146.394 237.201L144.46 237.443L142.548 243.566Z" fill="#2F2E41"/>
<path d="M100.277 243.566C100.214 243.769 100.194 243.982 100.22 244.192C100.246 244.403 100.316 244.605 100.426 244.786C100.536 244.967 100.683 245.123 100.858 245.242C101.033 245.362 101.231 245.443 101.439 245.48L115.417 247.962C115.97 248.063 116.54 247.959 117.021 247.668C117.501 247.378 117.859 246.921 118.026 246.385C118.189 245.872 118.167 245.319 117.962 244.822C117.758 244.324 117.385 243.915 116.909 243.666C113.835 242.086 111.19 239.785 109.2 236.959C107.664 238.391 105.947 238.256 104.123 237.201L102.189 237.443L100.277 243.566Z" fill="#2F2E41"/>
<path d="M118.202 103.209C122.619 103.209 126.199 99.6262 126.199 95.2067C126.199 90.7873 122.619 87.2047 118.202 87.2047C113.785 87.2047 110.205 90.7873 110.205 95.2067C110.205 99.6262 113.785 103.209 118.202 103.209Z" fill="#FFB8B8"/>
<path d="M111.062 145.22L131.912 144.648L125.789 125.365C129.594 119.261 125.764 113.163 120.344 107.067L116.06 104.209L109.205 103.638C106.237 106.815 104.613 111.019 104.674 115.368C104.809 124.68 106.457 134.818 111.062 145.22Z" fill="#4F3961"/>
<path d="M158.966 158.2C159.363 157.802 159.66 157.317 159.832 156.782C160.005 156.247 160.048 155.68 159.958 155.125C159.869 154.571 159.648 154.045 159.316 153.593C158.983 153.14 158.548 152.773 158.046 152.522L149.306 148.146L146.106 151.975L154.254 158.466C154.935 159.008 155.792 159.281 156.661 159.232C157.53 159.183 158.35 158.815 158.966 158.2Z" fill="#FFB8B8"/>
<path d="M148.478 156.08L151.905 147.792L133.342 136.081L125.526 111.896C125.119 110.637 124.27 109.569 123.137 108.889C122.003 108.209 120.662 107.963 119.361 108.196C118.573 108.338 117.826 108.651 117.173 109.113C116.519 109.575 115.975 110.175 115.579 110.871C115.182 111.566 114.944 112.34 114.879 113.139C114.815 113.937 114.927 114.739 115.207 115.489L121.201 136.503L148.478 156.08Z" fill="#4F3961"/>
<path d="M105.064 92.0631C105.064 95.1767 107.085 99.9987 109.634 102.066C111.349 103.456 113.615 103.398 114.489 101.494C115.386 99.5412 118.476 94.9507 123.915 92.0631C131.165 88.2136 121.343 81.6278 114.489 82.632C109.339 83.3866 105.064 86.8545 105.064 92.0631Z" fill="#2F2E41"/>
<path d="M109.919 87.7762C113.074 87.7762 115.632 85.2172 115.632 82.0604C115.632 78.9037 113.074 76.3447 109.919 76.3447C106.764 76.3447 104.207 78.9037 104.207 82.0604C104.207 85.2172 106.764 87.7762 109.919 87.7762Z" fill="#2F2E41"/>
<path d="M116.488 80.0599C116.488 78.6189 115.943 77.2314 114.963 76.1754C113.983 75.1194 112.641 74.473 111.205 74.3658C111.347 74.3552 111.488 74.3441 111.633 74.3441C113.148 74.3441 114.601 74.9463 115.672 76.0183C116.744 77.0902 117.345 78.544 117.345 80.0599C117.345 81.5758 116.744 83.0297 115.672 84.1016C114.601 85.1735 113.148 85.7757 111.633 85.7757C111.488 85.7757 111.347 85.7646 111.205 85.7541C112.641 85.6468 113.983 85.0004 114.963 83.9444C115.943 82.8885 116.488 81.5009 116.488 80.0599Z" fill="#2F2E41"/>
<path d="M118.345 98.0646C119.055 98.0646 119.63 97.2969 119.63 96.3499C119.63 95.4029 119.055 94.6352 118.345 94.6352C117.635 94.6352 117.06 95.4029 117.06 96.3499C117.06 97.2969 117.635 98.0646 118.345 98.0646Z" fill="#FFB8B8"/>
<path d="M280.194 229.191H191.27L172.44 140.121H156.37V136.124H175.678L194.508 225.194H280.194V229.191Z" fill="#3F3D56"/>
<path d="M204.302 245.463C209.029 245.463 212.861 241.629 212.861 236.899C212.861 232.169 209.029 228.334 204.302 228.334C199.574 228.334 195.742 232.169 195.742 236.899C195.742 241.629 199.574 245.463 204.302 245.463Z" fill="#3F3D56"/>
<path d="M268.211 245.463C272.938 245.463 276.77 241.629 276.77 236.899C276.77 232.169 272.938 228.334 268.211 228.334C263.484 228.334 259.652 232.169 259.652 236.899C259.652 241.629 263.484 245.463 268.211 245.463Z" fill="#3F3D56"/>
<path d="M278.572 227.309H192.055L176.79 151.825H292.898C293.49 151.825 294.076 151.954 294.614 152.202C295.152 152.45 295.63 152.812 296.015 153.262C296.4 153.713 296.683 154.241 296.845 154.812C297.006 155.382 297.042 155.981 296.95 156.566L282.624 223.842C282.476 224.81 281.986 225.692 281.242 226.329C280.498 226.965 279.551 227.313 278.572 227.309ZM192.995 226.167H278.572C279.279 226.17 279.962 225.919 280.499 225.459C281.036 225 281.39 224.363 281.496 223.664L295.822 156.389C295.889 155.966 295.863 155.534 295.746 155.123C295.63 154.711 295.426 154.329 295.148 154.004C294.87 153.679 294.525 153.418 294.136 153.239C293.748 153.06 293.326 152.967 292.898 152.967H178.175L192.995 226.167Z" fill="#3F3D56"/>
<path d="M208.874 227.067L198.877 152.489L200.003 152.303L210 226.881L208.874 227.067Z" fill="#3F3D56"/>
<path d="M264.461 226.495L263.334 226.312L273.039 152.305L274.166 152.488L264.461 226.495Z" fill="#3F3D56"/>
<path d="M237.977 152.396H236.836V226.974H237.977V152.396Z" fill="#3F3D56"/>
<path d="M182.619 172.38L182.617 173.522L293.087 173.79L293.09 172.648L182.619 172.38Z" fill="#3F3D56"/>
<path d="M285.294 207.655L188.244 208.319L188.251 209.461L285.302 208.797L285.294 207.655Z" fill="#3F3D56"/>
<path d="M158.081 140.977C161.548 140.977 164.358 139.443 164.358 137.551C164.358 135.659 161.548 134.126 158.081 134.126C154.615 134.126 151.805 135.659 151.805 137.551C151.805 139.443 154.615 140.977 158.081 140.977Z" fill="#3F3D56"/>
</svg>
