<svg width="45" height="45" viewBox="0 0 45 45" fill="none" xmlns="http://www.w3.org/2000/svg">
<path d="M41.2479 6.00821L38.6762 31.7224H10.367L7.79529 6.00821H41.2479Z" fill="#A07CBD"/>
<path d="M41.248 6.00821L38.6764 31.7224H24.0698V6.00821H41.248Z" fill="#8760A7"/>
<path d="M45 9.64336C45 14.9687 40.6828 19.2858 35.3575 19.2858C30.0313 19.2858 25.7141 14.9687 25.7141 9.64336C25.7141 4.31719 30.0313 0 35.3575 0C40.6828 0 45 4.31719 45 9.64336V9.64336Z" fill="#83E470"/>
<path d="M45 9.64336C45 14.9687 40.6828 19.2858 35.3575 19.2858V0C40.6828 0 45 4.31719 45 9.64336Z" fill="#01B763"/>
<path d="M40.4033 8.08154L35.3575 13.1273L34.483 14.0018L30.3108 9.82968L32.1758 7.96552L34.483 10.2726L35.3575 9.39814L38.5382 6.21738L40.4033 8.08154Z" fill="#F3FDFF"/>
<path d="M40.4033 8.08154L35.3575 13.1273V9.39814L38.5383 6.21738L40.4033 8.08154Z" fill="#D7F3F7"/>
<path d="M28.8214 24.2076H31.4581V26.8444H28.8214V24.2076Z" fill="#D0D0D7"/>
<path d="M22.7515 24.2077H25.3882V26.8444H22.7515V24.2077Z" fill="#F0F0F3"/>
<path d="M24.0698 24.2077H25.3882V26.8444H24.0698V24.2077Z" fill="#D0D0D7"/>
<path d="M16.6814 24.2076H19.3181V26.8444H16.6814V24.2076Z" fill="#F0F0F3"/>
<path d="M8.68975 34.541C8.65459 35.5113 9.43418 36.3111 10.3966 36.3111H38.8187C38.8213 36.3111 38.8222 36.3129 38.8222 36.3146V38.9443C38.8222 38.9461 38.8213 38.9479 38.8187 38.9479H10.4722C8.06924 38.9479 6.06445 37.0292 6.05215 34.6263C6.04248 32.7234 7.2624 31.101 8.96133 30.5042C8.96309 30.5033 8.96396 30.5024 8.96396 30.5007L6.17783 2.64023C6.17695 2.63848 6.17607 2.63672 6.17432 2.63672H0.00351562C0.00175781 2.63672 0 2.63496 0 2.6332V0.00351562C0 0.00175781 0.00175781 0 0.00351562 0H8.56055C8.5623 0 8.56318 0.00175781 8.56406 0.00351562L11.5893 30.2563C11.5893 30.2581 11.591 30.2599 11.5928 30.2599H38.8187C38.8213 30.2599 38.8222 30.2607 38.8222 30.2634V32.8931C38.8222 32.8948 38.8213 32.8966 38.8187 32.8966H10.4414C9.51504 32.8966 8.72314 33.6155 8.68975 34.541V34.541Z" fill="#EA728C"/>
<path d="M38.8222 30.2634V32.8931C38.8222 32.8948 38.8214 32.8966 38.8187 32.8966H24.0698V30.2599H38.8187C38.8214 30.2599 38.8222 30.2607 38.8222 30.2634V30.2634Z" fill="#F73862"/>
<path d="M38.8187 36.3111C38.8214 36.3111 38.8222 36.3129 38.8222 36.3146V38.9443C38.8222 38.9461 38.8214 38.9478 38.8187 38.9478H24.0698V36.3111H38.8187Z" fill="#F73862"/>
<path d="M15.958 45C17.7332 45 19.1723 43.5609 19.1723 41.7858C19.1723 40.0106 17.7332 38.5715 15.958 38.5715C14.1828 38.5715 12.7438 40.0106 12.7438 41.7858C12.7438 43.5609 14.1828 45 15.958 45Z" fill="#A07CBD"/>
<path d="M32.0679 45C33.8431 45 35.2821 43.5609 35.2821 41.7858C35.2821 40.0106 33.8431 38.5715 32.0679 38.5715C30.2927 38.5715 28.8536 40.0106 28.8536 41.7858C28.8536 43.5609 30.2927 45 32.0679 45Z" fill="#8760A7"/>
</svg>
