<svg width="45" height="45" viewBox="0 0 45 45" fill="none" xmlns="http://www.w3.org/2000/svg">
<path d="M19.8633 0C17.6824 0 15.9082 1.77416 15.9082 3.95508V5.36133L18.5449 6.67969H19.8633H21.1816L23.8184 5.36133V3.95508C23.8184 1.77416 22.0442 0 19.8633 0Z" fill="#FF6A4D"/>
<path d="M23.8184 5.36133V3.95508C23.8184 1.77416 22.0442 0 19.8633 0V6.67969H21.1816L23.8184 5.36133Z" fill="#E64D2E"/>
<path d="M0 39.7266C0.610928 42.7352 3.40277 45 6.5918 45C9.78082 45 12.6606 42.7352 13.2715 39.7266L10.4073 38.4082H1.83023L0 39.7266Z" fill="#474F54"/>
<path d="M6.5918 42.3633C4.41088 42.3633 2.63672 40.5891 2.63672 38.4082C2.63672 36.2273 4.41088 34.4531 6.5918 34.4531C8.77271 34.4531 10.6348 36.2273 10.6348 38.4082C10.6348 40.5891 8.77271 42.3633 6.5918 42.3633Z" fill="#F2F9FF"/>
<path d="M13.2715 15.9961H5.27344L2.63672 18.6328V26.543L5.27344 27.8613H13.2715L17.2266 26.543V19.4238L15.9082 18.6328L13.2715 15.9961Z" fill="#FF9100"/>
<path d="M2.63672 13.3594V18.6328H15.9082L17.2266 17.9503L15.9082 17.3145V13.3594H2.63672Z" fill="#FABE2C"/>
<path d="M21.1816 39.7266H0V38.4082C0 33.3114 4.21963 29.1797 9.31641 29.1797L11.5137 27.8613H23.8184V37.5293L21.1816 39.7266Z" fill="#FF6A4D"/>
<path d="M0 26.543H18.5449V29.1797H0V26.543Z" fill="#32393F"/>
<path d="M27.7734 33.2138V38.1708L26.4551 39.7266H21.1816V29.1797H18.5449C17.0947 29.1797 15.9082 27.9932 15.9082 26.543V19.9512H23.8184V23.9062C25.2686 23.9062 26.4551 25.0928 26.4551 26.543V31.8164L27.7734 33.2138Z" fill="#575F64"/>
<path d="M27.7734 33.2138V38.1708L26.4551 39.7266H21.1816V29.1797H19.8633V19.9512H23.8184V23.9062C25.2686 23.9062 26.4551 25.0928 26.4551 26.543V31.8164L27.7734 33.2138Z" fill="#474F54"/>
<path d="M23.8184 18.6328V17.3145C23.8184 15.1335 22.0442 13.3594 19.8633 13.3594C17.6824 13.3594 15.9082 15.1335 15.9082 17.3145V19.9512C15.9082 22.1355 17.6789 23.9062 19.8633 23.9062H30.498C32.6824 23.9062 34.4531 22.1355 34.4531 19.9512V18.6328H23.8184Z" fill="#FF6A4D"/>
<path d="M34.4531 19.9512V18.6328H23.8184V17.3145C23.8184 15.1335 22.0442 13.3594 19.8633 13.3594V23.9062H30.498C32.6824 23.9062 34.4531 22.1355 34.4531 19.9512Z" fill="#E64D2E"/>
<path d="M21.1816 6.67969H19.8633H18.5449L15.9082 7.99805V9.31641C15.9082 11.4973 17.6824 13.3594 19.8633 13.3594C22.0442 13.3594 23.8184 11.4973 23.8184 9.31641V7.99805L21.1816 6.67969Z" fill="#FFE1BA"/>
<path d="M23.8184 9.31641V7.99805L21.1816 6.67969H19.8633V13.3594C22.0442 13.3594 23.8184 11.4973 23.8184 9.31641Z" fill="#FFBFAB"/>
<path d="M19.8633 5.36133H15.9082V7.99805H19.8633H26.4551V5.36133H19.8633Z" fill="#474F54"/>
<path d="M19.8633 5.36133H26.4551V7.99805H19.8633V5.36133Z" fill="#32393F"/>
<path d="M38.0863 26.8378C37.9409 25.8116 37.6524 23.7903 37.077 19.7644L31.8164 17.3145V27.8613C31.8164 29.9411 30.0248 31.8164 27.7734 31.8164H26.4551V39.7266H29.0918H42.3633L45 38.4082V35.7715C45 31.5538 42.0904 27.8768 38.0863 26.8378Z" fill="#E64D2E"/>
<path d="M39.7266 21.2695H35.7715C33.5906 21.2695 31.8164 19.4954 31.8164 17.3145C31.8164 15.1335 33.5906 13.3594 35.7715 13.3594H39.7266V21.2695Z" fill="#FF6A4D"/>
<path d="M38.8044 31.8565L38.421 33.3214L36.1929 32.2269C33.6502 33.142 31.8164 35.5544 31.8164 38.4082C31.8164 42.0427 34.7737 45 38.4082 45C42.0427 45 45 42.0427 45 38.4082C45 34.9094 42.2514 32.066 38.8044 31.8565Z" fill="#32393F"/>
<path d="M38.4082 34.4531C36.2273 34.4531 34.4531 36.2273 34.4531 38.4082C34.4531 40.5891 36.2273 42.3633 38.4082 42.3633C40.5891 42.3633 42.3633 40.5891 42.3633 38.4082C42.3633 36.2273 40.5891 34.4531 38.4082 34.4531Z" fill="#DFE7F4"/>
<path d="M39.7137 38.2215L38.8045 31.8565C38.6706 31.8484 38.5439 31.8164 38.4082 31.8164C37.6275 31.8164 36.8885 31.9767 36.193 32.2269L37.1028 38.5949L39.7137 38.2215Z" fill="#C7CFE1"/>
</svg>
