<svg width="35" height="35" viewBox="0 0 35 35" fill="none" xmlns="http://www.w3.org/2000/svg">
<path d="M32.2416 32.5381C31.3443 26.4725 29.1791 20.4735 24.4185 17.5742C22.4534 19.1239 20.0435 19.9619 17.5 19.9619C14.9566 19.9619 12.5467 19.1239 10.5816 17.5742C5.82843 20.4735 3.66318 26.4725 2.75852 32.5381C2.56572 33.8358 3.58902 35 4.90152 35H30.0986C31.4111 35 32.4344 33.8358 32.2416 32.5381Z" fill="#F0F0F3"/>
<path d="M17.5 0C12.6727 0 8.75 3.91525 8.75 8.75C8.75 13.5847 12.6653 17.5 17.5 17.5C22.3347 17.5 26.25 13.5847 26.25 8.75C26.25 3.91525 22.3273 0 17.5 0ZM17.5 5.89513C15.928 5.89513 14.6525 7.17055 14.6525 8.74259C14.6525 9.46186 14.0667 10.0477 13.3475 10.0477C12.6282 10.0477 12.0424 9.46186 12.0424 8.74259C12.0424 5.73199 14.4894 3.28496 17.5 3.28496C18.2193 3.28496 18.8051 3.87076 18.8051 4.59004C18.8051 5.30932 18.2193 5.89513 17.5 5.89513Z" fill="#F0F0F3"/>
</svg>
