<svg width="45" height="45" viewBox="0 0 45 45" fill="none" xmlns="http://www.w3.org/2000/svg">
<g clip-path="url(#clip0)">
<path d="M39.375 1.875H5.625C2.52375 1.875 0 4.39875 0 7.5V37.5C0 40.6012 2.52375 43.125 5.625 43.125H39.375C42.4763 43.125 45 40.6012 45 37.5V7.5C45 4.39875 42.4763 1.875 39.375 1.875Z" fill="#607D8B"/>
<path d="M39.375 39.375H5.625C4.59188 39.375 3.75 38.535 3.75 37.5V11.25H41.25V37.5C41.25 38.535 40.4081 39.375 39.375 39.375Z" fill="white"/>
<path d="M22.5 30C21.465 30 20.625 29.16 20.625 28.125V27.42C20.625 25.4663 21.6506 23.6944 23.2369 22.9031C23.9887 22.5281 24.5944 21.5063 24.2981 20.2744C24.1312 19.5731 23.6081 18.99 22.9987 18.8213C22.3706 18.6488 21.7762 18.7406 21.3281 19.08C20.8744 19.4231 20.625 19.9725 20.625 20.625C20.625 21.66 19.785 22.5 18.75 22.5C17.715 22.5 16.875 21.66 16.875 20.625C16.875 18.7988 17.67 17.1488 19.0575 16.0931C20.4412 15.0394 22.245 14.7169 24.0019 15.2063C25.9144 15.7369 27.4612 17.3831 27.945 19.3988C28.6181 22.2113 27.3712 25.0294 24.9094 26.2556C24.6 26.4131 24.375 26.9025 24.375 27.42V28.125C24.375 29.16 23.535 30 22.5 30V30Z" fill="#F44336"/>
<path d="M24.375 33.75C24.375 34.785 23.535 35.625 22.5 35.625C21.465 35.625 20.625 34.785 20.625 33.75C20.625 32.715 21.465 31.875 22.5 31.875C23.535 31.875 24.375 32.715 24.375 33.75Z" fill="#F44336"/>
<path d="M22.5 1.875H5.625C2.52375 1.875 0 4.39875 0 7.5V37.5C0 40.6012 2.52375 43.125 5.625 43.125H22.5V39.375H5.625C4.59188 39.375 3.75 38.535 3.75 37.5V11.25H22.5V1.875Z" fill="#546D79"/>
<path d="M22.5 11.25H3.75V37.5C3.75 38.535 4.59188 39.375 5.625 39.375H22.5V35.625C21.465 35.625 20.625 34.785 20.625 33.75C20.625 32.715 21.465 31.875 22.5 31.875V30C21.465 30 20.625 29.16 20.625 28.125V27.42C20.625 25.7887 21.3394 24.2831 22.5 23.37V18.7388C22.4625 18.7369 22.4269 18.735 22.3913 18.735C21.9938 18.735 21.6262 18.8512 21.3262 19.08C20.8744 19.4231 20.625 19.9725 20.625 20.625C20.625 21.66 19.785 22.5 18.75 22.5C17.715 22.5 16.875 21.66 16.875 20.625C16.875 18.7988 17.67 17.1488 19.0575 16.0931C20.0175 15.3619 21.18 14.9831 22.3875 14.9831C22.425 14.9831 22.4625 14.9831 22.5 14.985V11.25Z" fill="#DEDEDE"/>
<path d="M22.5 23.37C21.3394 24.2831 20.625 25.7887 20.625 27.42V28.125C20.625 29.16 21.465 30 22.5 30V23.37ZM22.3875 14.9831C21.18 14.9831 20.0175 15.3619 19.0575 16.0931C17.67 17.1469 16.875 18.7987 16.875 20.625C16.875 21.66 17.715 22.5 18.75 22.5C19.785 22.5 20.625 21.66 20.625 20.625C20.625 19.9725 20.8744 19.4231 21.3262 19.08C21.6262 18.8531 21.9919 18.735 22.3913 18.735C22.4269 18.735 22.4644 18.7369 22.5 18.7387V14.985C22.4625 14.985 22.425 14.9831 22.3875 14.9831V14.9831Z" fill="#D43A2F"/>
<path d="M22.5 31.875C21.465 31.875 20.625 32.715 20.625 33.75C20.625 34.785 21.465 35.625 22.5 35.625V31.875Z" fill="#D43A2F"/>
</g>
<defs>
<clipPath id="clip0">
<rect width="45" height="45" fill="white"/>
</clipPath>
</defs>
</svg>
