<svg width="71" height="71" viewBox="0 0 71 71" fill="none" xmlns="http://www.w3.org/2000/svg">
<g clip-path="url(#clip0)">
<path d="M35.7165 16.971C25.47 17.875 17.9154 10.3181 18.8171 0.073961C29.0636 -0.83007 36.6182 6.72682 35.7165 16.971Z" fill="#7FB241"/>
<path d="M36.1087 24.108C35.225 23.8871 34.5306 23.1386 34.4246 22.1805C33.9399 17.7911 35.1957 13.4783 37.9551 10.0336C40.7168 6.58876 44.6553 4.4245 49.0424 3.94205C50.2734 3.80904 51.378 4.69503 51.5111 5.9237C51.6463 7.15238 50.7603 8.25705 49.5317 8.39457C46.3326 8.74627 43.4627 10.3221 41.4495 12.8336C39.4363 15.345 38.5232 18.4877 38.8749 21.6868C39.0102 22.9177 38.1242 24.0224 36.8933 24.1599C36.6227 24.1915 36.359 24.1712 36.1087 24.108Z" fill="#8E6D53"/>
<path d="M52.7082 16.9434C50.2643 16.2919 47.7371 16.4271 45.2572 17.2252C38.8862 19.279 32.1116 19.279 25.7405 17.2252C23.2606 16.4271 20.7334 16.2919 18.2896 16.9434C8.53235 19.5428 3.82507 33.6579 7.7726 48.4718C11.7201 63.2857 22.8278 73.185 32.585 70.5856C32.5963 70.5834 32.6053 70.5811 32.6166 70.5766C34.5126 70.0648 36.4874 70.0648 38.3834 70.5766C38.3947 70.5789 38.4037 70.5811 38.415 70.5856C48.17 73.185 59.2799 63.2835 63.2274 48.4718C67.1727 33.6579 62.4631 19.5428 52.7082 16.9434Z" fill="#E14B4B"/>
<path d="M63.2252 48.4695C59.2799 63.2812 48.1655 73.1782 38.4037 70.5856H38.3812C36.4875 70.0671 34.5036 70.0671 32.6098 70.5856H32.5873C28.9125 71.555 25.0574 70.7659 21.4729 68.6242C40.6131 61.2296 54.9514 42.5629 57.9498 19.8156C64.0142 25.2488 66.3814 36.6337 63.2252 48.4695Z" fill="#D03F3F"/>
</g>
<defs>
<clipPath id="clip0">
<rect width="71" height="71" fill="white"/>
</clipPath>
</defs>
</svg>
