<svg width="71" height="71" viewBox="0 0 71 71" fill="none" xmlns="http://www.w3.org/2000/svg">
<g clip-path="url(#clip0)">
<path d="M70.6689 41.204C70.62 41.3499 70.5712 41.5085 70.5103 41.6551C69.6547 43.8955 68.2804 45.9013 66.4986 47.5072C61.0367 52.5429 53.0261 53.6766 46.9785 50.2265L43.3525 41.2032H70.6689V41.204Z" fill="#527F72"/>
<path d="M49.8678 43.24C52.8735 44.0173 55.9575 44.4504 59.061 44.5323C63.9868 44.5323 69.4856 43.4227 70.6682 41.2041C73.3507 36.1925 59.8413 34.0957 57.1589 33.7904C55.3786 33.5957 53.599 33.4859 51.8188 33.4371L49.8678 43.24Z" fill="#F9EAB0"/>
<path d="M16.3226 61.9555C22.2604 63.9425 29.3071 65.162 35.0502 62.5532C36.7072 61.7788 38.253 60.7864 39.6468 59.6023C43.6893 56.0493 46.7966 51.5564 48.6934 46.5193C53.1682 35.3511 53.7538 20.6592 46.2184 10.7586L46.2064 10.7466L16.3226 61.9555Z" fill="#4C8056"/>
<path d="M8.70277 59.3016C11.2537 60.7842 14.0857 61.7194 17.0178 62.0472C26.3561 63.1103 34.1877 56.2545 39.0512 47.9147C41.9404 42.7542 44.177 37.2547 45.7085 31.5424C47.1715 26.4218 48.2691 20.9742 47.7459 15.9356C47.4286 12.896 46.4047 9.79551 43.7981 8.26933L43.6177 8.16408L43.6357 8.17536L43.4553 8.07612C40.8435 6.55069 37.3799 7.03034 34.2757 8.07612C29.0581 10.0632 24.2074 12.9028 19.9213 16.4791C15.0691 20.1487 10.665 24.3754 6.79843 29.072C0.74709 36.7172 -2.58118 46.2043 2.46724 53.5472C4.10243 55.9049 6.23758 57.8724 8.72081 59.3099L8.70277 59.3016Z" fill="#71C285"/>
<path d="M11.4425 55.3057C9.40813 54.1329 7.65866 52.5233 6.32193 50.5919C1.59454 43.703 7.43763 34.9451 10.1622 31.4973C13.7431 27.1578 17.8209 23.2552 22.3122 19.869C25.4488 17.4196 30.1694 13.9808 35.0577 12.3366C36.8252 11.7442 39.2521 11.2157 40.7256 12.0765L41.067 12.2765C42.5428 13.1388 43.0683 15.3905 43.2495 17.1294C43.7374 21.914 42.4157 27.3345 41.3737 30.9959C39.9648 36.2834 37.9033 41.3746 35.2367 46.1516C33.0421 49.9092 26.999 58.5505 18.2472 57.5544C15.8474 57.2882 13.5288 56.5222 11.4425 55.3057Z" fill="#F9EAB0"/>
<path d="M29.6658 43.3971C26.648 47.8162 20.9778 49.5146 16.9992 47.1892C13.0206 44.8646 12.244 39.3982 15.2588 34.9783C18.2743 30.5584 23.9475 28.8615 27.9261 31.1861C31.9047 33.5115 32.6836 38.9787 29.6658 43.3971Z" fill="#7F6E5D"/>
<path d="M17.7134 41.8295C17.669 41.8295 17.6247 41.8265 17.5803 41.822C16.912 41.7491 16.4293 41.1491 16.5007 40.4807C17.1683 34.3181 21.9739 33.1897 24.4256 33.4506C25.0954 33.5212 25.5811 34.1212 25.5097 34.791C25.4398 35.4609 24.8391 35.9466 24.1692 35.8751C23.682 35.827 19.4847 35.5865 18.9268 40.7439C18.8584 41.3626 18.3351 41.8295 17.7134 41.8295Z" fill="#CBB292"/>
</g>
<defs>
<clipPath id="clip0">
<rect width="71" height="71" fill="white"/>
</clipPath>
</defs>
</svg>
