<svg width="71" height="71" viewBox="0 0 71 71" fill="none" xmlns="http://www.w3.org/2000/svg">
<g clip-path="url(#clip0)">
<path d="M47.0704 9.90455C47.5883 9.00841 48.2534 8.20664 49.0393 7.53246C50.1212 6.53667 51.4522 5.85192 52.8911 5.55144C54.2901 5.17396 55.7645 5.18227 57.1589 5.5756C58.5654 5.95459 60.2898 6.06482 61.3905 7.16555C62.5003 8.34707 63.2839 9.79659 63.6652 11.3722C64.0668 12.9455 64.0585 14.5966 63.6403 16.1662L53.0942 18.5262L47.0704 9.90455Z" fill="#F5EFCA"/>
<path d="M50.5801 25.5942C50.5069 25.6433 50.4699 25.7535 50.3846 25.8146C49.0445 26.6081 47.5263 27.0497 45.9696 27.0988C44.4272 27.3162 42.8546 27.1434 41.396 26.5975C40.0756 25.9739 39.5003 24.2979 38.62 23.0145C37.7375 21.882 37.1871 20.5276 37.0301 19.1008C36.7726 17.6331 36.9033 16.1239 37.4098 14.7227C38.2154 13.4793 39.3327 12.4677 40.6501 11.7882C42.7164 10.3575 44.9549 9.40328 47.2417 9.92949C48.8437 10.2647 50.3264 11.0249 51.5336 12.1302C52.6004 13.348 53.3184 14.8307 53.6128 16.4229L50.5801 25.5942Z" fill="#F9EAB0"/>
<path d="M68.0062 50.7736C61.3293 52.3024 47.1436 53.1948 29.1181 41.0271C28.2869 40.4404 26.9174 39.5473 25.2663 38.4957C24.337 37.9091 23.3215 37.2606 22.2699 36.6C22.2631 36.6 22.2578 36.5947 22.2578 36.5879C18.3531 34.2475 14.573 31.7048 10.9341 28.9696L10.0659 10.6384L10.0289 9.73315C10.1512 10.0759 10.2856 10.4187 10.4208 10.7486V10.7607C10.4328 10.7727 10.4208 10.7856 10.4208 10.7976C10.7386 11.5556 11.0685 12.3015 11.4475 13.0354C14.5783 19.3212 19.9469 25.0808 33.6554 34.6801C50.3235 46.0045 57.5749 48.0588 66.2577 48.0346C66.5944 48.0339 66.9304 48.0663 67.2603 48.132L68.0062 50.7736Z" fill="#F3D55B"/>
<path d="M68.6788 53.1215C68.6297 53.194 68.5769 53.2634 68.5195 53.3299C68.4833 53.354 68.4712 53.3782 68.4342 53.391C63.4937 58.7105 53.3191 60.3367 42.3012 57.9155H42.2891L11.227 35.2674L10.9341 28.9696C13.3915 31.2193 25.7555 38.655 29.1181 41.027C47.1435 53.1947 61.3293 52.3024 68.0061 50.7736H68.0182L68.6788 53.1215Z" fill="#F0C419"/>
<path d="M68.0182 51.9974H68.0069C67.3305 51.9974 66.7839 51.45 66.7839 50.7743C66.7839 50.0986 67.3305 49.5513 68.0069 49.5513C68.6826 49.5513 69.2352 50.0986 69.2352 50.7743C69.2352 51.45 68.6947 51.9974 68.0182 51.9974Z" fill="black"/>
<path d="M68.5806 47.9591C67.125 47.7907 65.8114 48.813 65.6461 50.2414C65.4807 51.6705 66.5264 52.966 67.9819 53.1344C69.4375 53.3028 70.7511 52.2805 70.9165 50.8514C71.081 49.4222 70.0354 48.1275 68.5806 47.9591Z" fill="#CB9080"/>
<path d="M67.1991 23.3074C67.3267 24.8369 67.0632 26.3733 66.4321 27.7722C65.5072 28.9877 64.2857 29.9457 62.886 30.5565C61.6433 31.3983 60.1976 31.8935 58.6997 31.9902C57.2276 31.8022 55.8339 31.2201 54.6645 30.3066C53.3486 29.6875 52.2244 28.7242 51.4106 27.5193C50.7334 26.223 50.4186 24.7675 50.5001 23.3074C50.4223 21.8488 50.7402 20.3962 51.4204 19.103C52.115 17.7826 53.1462 16.6682 54.4093 15.8725C55.7093 15.1024 57.1891 14.688 58.7005 14.6714C60.178 14.8125 61.5897 15.3508 62.7871 16.2281C64.0328 16.94 65.0595 17.9804 65.7541 19.2366C66.5974 20.437 67.0972 21.8442 67.1991 23.3074Z" fill="#F3D55B"/>
<path d="M58.6998 23.3074C58.0248 23.3074 57.4775 22.7601 57.4775 22.0851V20.8621C57.4775 20.1864 58.0248 19.639 58.6998 19.639C59.3755 19.639 59.9228 20.1864 59.9228 20.8621V22.0851C59.9228 22.7601 59.3755 23.3074 58.6998 23.3074Z" fill="#CB9080"/>
<path d="M61.1458 26.7976C60.8212 26.7976 60.5109 26.6692 60.2814 26.4397L59.4162 25.5745C58.9383 25.0974 58.9383 24.3228 59.4162 23.8449C59.8934 23.367 60.6679 23.367 61.1458 23.8449L62.0103 24.7094C62.3606 25.0589 62.4663 25.5851 62.2768 26.0426C62.0873 26.5001 61.6411 26.7983 61.1458 26.7976Z" fill="#CB9080"/>
<path d="M56.2544 26.7976C55.7599 26.7976 55.3137 26.4994 55.1249 26.0426C54.9354 25.5859 55.0404 25.0604 55.3899 24.7101L56.2544 23.8449C56.7338 23.3814 57.497 23.3874 57.9681 23.8593C58.44 24.3311 58.4468 25.0936 57.9832 25.5738L57.1188 26.4382C56.89 26.6685 56.579 26.7976 56.2544 26.7976Z" fill="#CB9080"/>
<path d="M44.5525 18.635C44.1516 18.635 43.7757 18.4387 43.5469 18.1095L42.8501 17.1054C42.6009 16.746 42.5617 16.2817 42.7481 15.8861C42.9346 15.4913 43.3174 15.2248 43.753 15.1885C44.1879 15.1523 44.6099 15.3509 44.859 15.7102L45.5566 16.7143C45.8156 17.088 45.8458 17.5742 45.6351 17.9774C45.4253 18.3805 45.0085 18.6334 44.5533 18.6342L44.5525 18.635Z" fill="#CB9080"/>
<path d="M48.5501 20.1064C48.4768 20.1064 48.4036 20.0996 48.3311 20.0868L47.1277 19.8693C46.6921 19.7976 46.329 19.4964 46.178 19.0819C46.0262 18.6674 46.11 18.2039 46.3969 17.8679C46.6831 17.5327 47.1285 17.3772 47.5618 17.4625L48.7652 17.6799C49.3881 17.7932 49.8214 18.3617 49.7655 18.9921C49.7089 19.6225 49.1812 20.1056 48.5486 20.1064H48.5501Z" fill="#CB9080"/>
<path d="M44.5329 22.8952C44.4596 22.8959 44.3864 22.8892 44.3139 22.8763C43.9946 22.8182 43.7107 22.637 43.5258 22.3697C43.3408 22.1032 43.2698 21.7741 43.3272 21.4547L43.5446 20.2513C43.6647 19.587 44.3011 19.1446 44.9655 19.2646C45.6306 19.3846 46.0722 20.0211 45.9522 20.6854L45.7348 21.8888C45.6298 22.4709 45.124 22.8944 44.5329 22.8952Z" fill="#CB9080"/>
<path d="M55.8957 13.8825C55.4012 13.8825 54.9558 13.585 54.7663 13.1275C54.5768 12.6708 54.6818 12.1453 55.0313 11.795L55.8957 10.9306C56.3759 10.467 57.1384 10.4738 57.6103 10.9457C58.0821 11.4175 58.0882 12.18 57.6246 12.6594L56.7602 13.5246C56.5314 13.7541 56.2204 13.8825 55.8957 13.8825Z" fill="#CB9080"/>
<path d="M54.248 68.5915C54.1309 68.6836 54.0086 68.7697 53.881 68.8482C53.8448 68.8603 53.8199 68.8852 53.7957 68.8852C44.025 73.4459 23.9695 70.768 11.3979 55.1026C-0.953301 39.8531 -3.17893 17.279 4.29292 8.75552L7.30145 9.73395C6.1154 16.3497 4.84329 28.2358 18.3443 45.3198C31.7471 61.5598 45.1129 65.9008 53.6123 66.0963L54.2238 66.0843L54.248 68.5915Z" fill="#F0C419"/>
<path d="M54.2243 66.0842L53.6128 66.0963C45.1135 65.9008 31.7476 61.5597 18.3448 45.3198C4.84383 28.2357 6.11594 16.3489 7.30199 9.73315L10.42 10.7486V10.7607C10.4321 10.7727 10.42 10.7856 10.42 10.7976C10.922 17.5719 12.8781 23.552 20.4111 34.0814C21.9762 36.2459 23.7617 38.618 25.8408 41.2233C32.7623 49.6608 37.8009 54.6873 42.2884 57.9155H42.3005C45.9568 60.3465 49.9664 62.1992 54.1873 63.4064L54.2243 66.0842Z" fill="#F3D55B"/>
<path d="M10.4199 10.7486L7.85233 10.2412L10.0289 9.7339C10.1512 10.0759 10.2856 10.4186 10.4199 10.7486Z" fill="#F3D55B"/>
<path d="M25.2663 38.4957C24.337 37.9091 23.3216 37.2606 22.2699 36.6C22.2631 36.6 22.2578 36.5947 22.2578 36.5879C21.6101 35.7197 20.9985 34.8885 20.4112 34.0814C12.8782 23.552 10.9221 17.5719 10.4208 10.7977C10.7386 11.5556 11.0685 12.3016 11.4475 13.0354C12.3769 18.5383 14.786 24.1393 21.0227 32.8584C22.2827 34.5948 23.6764 36.4656 25.2663 38.4957Z" fill="#F0C419"/>
<path d="M54.7664 63.4064C53.3108 63.238 51.9972 64.2602 51.8319 65.6894C51.6673 67.1185 52.7129 68.4133 54.1677 68.5816C55.6233 68.75 56.9369 67.7278 57.1023 66.2986C57.2676 64.8695 56.222 63.5747 54.7664 63.4064Z" fill="#CB9080"/>
<path d="M6.63538 10.4391L5.25984 9.68259C4.16892 9.09447 3.64649 7.81708 4.01264 6.6333L5.50445 1.90724C5.73924 1.18324 6.273 0.595122 6.97058 0.290873C7.66817 -0.0126216 8.46238 -0.00356212 9.15242 0.317296L11.2021 1.26326C11.8356 1.54788 12.3285 2.0756 12.5701 2.72638C12.8117 3.37791 12.7815 4.09965 12.4863 4.72853L10.3271 9.2734C10.007 9.93248 9.43025 10.43 8.73191 10.6504C8.03357 10.8709 7.27559 10.7946 6.63538 10.4391Z" fill="#7F5B53"/>
</g>
<defs>
<clipPath id="clip0">
<rect width="71" height="71" fill="white"/>
</clipPath>
</defs>
</svg>
