<svg width="71" height="71" viewBox="0 0 71 71" fill="none" xmlns="http://www.w3.org/2000/svg">
<path d="M58.3115 36.859L58.2699 36.9006C56.7307 38.8143 55.3994 40.6447 54.2207 42.3781L54.2346 42.392C55.7461 43.3072 57.7014 43.3627 59.2961 42.3365C60.5164 41.56 61.2652 40.3258 61.4594 39.0084L61.4732 38.9668C60.2252 38.6478 59.1158 37.8713 58.3115 36.859Z" fill="#3B601C"/>
<path d="M45.1793 33.8914L41.9344 40.8666C39.4105 42.1008 36.1379 40.6586 35.0285 39.0223L34.5293 36.2072C35.2643 36.3182 36.0131 36.3736 36.7758 36.3736C39.8127 36.3875 42.6832 35.4861 45.1793 33.8914Z" fill="#4E7A25"/>
<path d="M25.0165 30.8545C26.0981 32.0332 27.2768 33.0594 28.5387 33.8914C27.9147 38.0516 22.6174 40.1594 19.3725 37.4137C18.6375 35.9854 18.1383 35.0008 18.1106 34.9453C19.844 34.9037 21.5774 34.3074 23.0473 33.1287C23.8655 32.4631 24.5311 31.7004 25.0165 30.8545Z" fill="#3B601C"/>
<path d="M11.3294 34.9037L15.8779 43.6539L15.8224 43.6816C12.8271 45.0684 9.27708 43.751 7.89036 40.7557C7.03059 38.8836 7.22473 36.7896 8.2093 35.1533L8.30637 34.765C8.48665 34.8066 8.68079 34.8482 8.87493 34.8898C9.70696 35.0285 10.539 35.0285 11.3294 34.9037Z" fill="#3B601C"/>
<path d="M9.27711 39.3689C8.61148 37.9129 8.56988 36.3181 9.05523 34.9176C8.9859 34.9037 8.93043 34.9037 8.86109 34.8898C8.66695 34.8621 8.48668 34.8205 8.29254 34.765L8.19547 35.1533C7.19703 36.7896 7.01676 38.8836 7.87652 40.7557C9.24937 43.751 12.7994 45.0684 15.8086 43.6816L15.8779 43.6539L15.4341 42.808C12.9242 43.1131 10.4003 41.7957 9.27711 39.3689Z" fill="#4D841E"/>
<path d="M26.4724 32.2828C25.571 35.5693 21.6605 37.3305 18.6375 35.9438C18.8455 36.3459 19.0951 36.8313 19.3863 37.3998C22.6173 40.1455 27.9146 38.0516 28.5525 33.8776C27.8314 33.4199 27.138 32.8791 26.4724 32.2828Z" fill="#315112"/>
<path d="M34.5293 36.2627L35.0146 39.0223C36.1102 40.6586 39.3967 42.1008 41.9205 40.8666L43.1547 38.2041C40.0207 39.258 36.1795 37.9268 34.5293 36.2627Z" fill="#2C4415"/>
<path d="M59.2961 40.3951C58.0342 41.1994 56.5504 41.3381 55.233 40.9082C54.8863 41.4074 54.5396 41.8928 54.2207 42.3781L54.2346 42.392C55.7461 43.3072 57.7014 43.3627 59.2961 42.3365C60.5164 41.56 61.2652 40.3258 61.4594 39.0084L61.4732 38.9668C61.2652 38.9113 61.0572 38.842 60.8631 38.7727C60.4887 39.4106 59.9617 39.9791 59.2961 40.3951Z" fill="#4D841E"/>
<path d="M46.0114 31.95L37.1225 50.9203L34.5293 36.2072C32.3938 35.8744 30.3553 35.084 28.5526 33.8775L29.6758 47.398C29.6897 50.4904 26.7637 51.3502 25.3077 48.7432L17.0567 32.8375L11.2602 34.7789L26.944 65.0094C27.8315 67.2697 30.0086 68.7674 32.4631 68.7674H38.8559C41.4491 68.7674 43.6678 67.0478 44.5137 64.5934C46.8018 57.9926 48.6739 51.2809 54.4981 42.6416L59.5319 35.3475L46.0114 31.95Z" fill="#CADD78"/>
<path d="M41.144 67.7273H34.7512C32.3106 67.7273 30.1196 66.2296 29.2321 63.9693L13.7424 34.0717L11.3295 34.8898L26.944 65.0093C27.8315 67.2697 30.0086 68.7673 32.4631 68.7673H38.8559C40.1178 68.7673 41.352 68.3513 42.3643 67.5886C41.9622 67.6857 41.56 67.7273 41.144 67.7273Z" fill="#ADBC55"/>
<path d="M31.0487 35.2227C30.1751 34.8482 29.343 34.4045 28.5526 33.8914L29.6759 47.4119C29.6897 48.0221 29.5511 48.6322 29.2737 49.173C30.605 49.5475 31.9778 48.4797 31.9778 46.358L31.0487 35.2227Z" fill="#ADBC55"/>
<path d="M46.2887 31.1318L37.1364 50.948L37.5385 53.2084C37.7049 54.5119 38.2457 54.7615 38.8559 54.5674C39.369 54.4148 39.7573 53.9988 39.9514 53.4996L49.7416 31.1457L46.2887 31.1318Z" fill="#ADBC55"/>
<path d="M12.2863 21.6328C9.60995 24.5172 9.31874 28.9408 11.801 32.0332C12.4389 32.8236 13.1877 33.4477 14.0197 33.9191C12.5221 34.8066 10.7193 35.1949 8.87499 34.876C4.75644 34.1826 1.983 30.2721 2.67636 26.1535C3.36972 22.035 7.28026 19.2615 11.3988 19.9549L11.593 19.8994C11.7594 20.5096 11.9812 21.0781 12.2863 21.6328Z" fill="#3B601C"/>
<path d="M57.5488 35.1672C55.7461 35.9022 53.7631 35.9992 51.9188 35.4862C50.4072 35.0701 48.9928 34.2242 47.8557 32.9901C47.6477 32.7682 47.4674 32.5463 47.2871 32.3106L47.2594 32.3244C44.3334 34.876 40.7002 36.3875 36.7758 36.3875C32.1442 36.3875 28.1643 34.2936 25.0303 30.8545C24.5311 31.7004 23.8793 32.4631 23.075 33.1149C20.3986 35.2643 16.7932 35.4862 14.0336 33.9192C13.2016 33.4477 12.4527 32.8237 11.8149 32.0332C9.3465 28.9547 9.62384 24.5311 12.3002 21.6328C11.9951 21.0781 11.7733 20.5096 11.6068 19.9133C9.97052 13.784 16.0166 6.14317 24.1012 10.5391C28.6635 -1.67793 45.5399 0.95684 49.3117 9.48517C55.1221 6.62852 61.3485 12.5082 59.1713 17.0983H59.3793C64.2051 17.0983 68.1156 21.0088 68.1156 25.8207C68.1156 27.4016 67.6858 28.8992 66.9508 30.175C67.866 31.1457 68.4346 32.477 68.4346 33.9192C68.4346 36.9422 65.9801 39.3967 62.9571 39.3967C60.461 39.3967 58.2145 37.4276 57.5488 35.1672Z" fill="#4D841E"/>
<path d="M62.9431 33.8498C60.4609 33.8498 58.2144 31.8806 57.5349 29.6064C55.7322 30.3414 53.7492 30.4384 51.9048 29.9254C50.3933 29.5093 48.9789 28.6773 47.8418 27.4293C47.6338 27.2074 47.4535 26.9855 47.2732 26.7498L47.2455 26.7636C44.3195 29.3152 40.6863 30.8267 36.7619 30.8267C32.1302 30.8267 28.1504 28.7328 25.0164 25.2937C24.5172 26.1396 23.8654 26.9023 23.0611 27.5541C20.3847 29.7035 16.7793 29.9254 14.0197 28.3584C13.1877 27.8869 12.425 27.2629 11.8009 26.4724C11.274 25.8207 10.8857 25.1135 10.5945 24.3646C9.6654 26.9023 10.0121 29.8006 11.8009 32.0193C12.4388 32.8097 13.1877 33.4338 14.0197 33.9052C16.7793 35.4584 20.3847 35.2503 23.0611 33.1009C23.8654 32.4492 24.531 31.6865 25.0164 30.8406C28.1504 34.2658 32.1302 36.3736 36.7619 36.3736C40.6863 36.3736 44.3195 34.8621 47.2455 32.3105L47.2732 32.2966C47.4535 32.5324 47.6338 32.7543 47.8418 32.9761C48.9789 34.2103 50.3933 35.0423 51.9048 35.4722C53.7492 35.9853 55.7322 35.8882 57.5349 35.1533C58.2005 37.4275 60.447 39.3966 62.9431 39.3966C65.9662 39.3966 68.4207 36.9421 68.4207 33.9191C68.4207 32.9068 68.1433 31.9638 67.6718 31.1457C66.715 32.7681 64.9677 33.8498 62.9431 33.8498Z" fill="#67A829"/>
<path d="M11.898 32.1441C11.8148 32.1303 11.7316 32.1164 11.6484 32.1025C7.52987 31.4092 4.75644 27.4986 5.4498 23.3801C5.60234 22.4648 5.92128 21.6189 6.35116 20.8701C4.46523 21.9518 3.06464 23.8516 2.67636 26.1535C1.983 30.2721 4.75644 34.1826 8.87499 34.876C10.7193 35.1811 12.5221 34.8066 14.0197 33.9191C13.2293 33.4754 12.5082 32.8791 11.898 32.1441Z" fill="#4D841E"/>
</svg>
