<svg width="71" height="71" viewBox="0 0 71 71" fill="none" xmlns="http://www.w3.org/2000/svg">
<g clip-path="url(#clip0)">
<path d="M26.9594 9.56172C26.528 13.9609 22.2605 17.1105 17.4277 16.5964C12.5948 16.0823 9.02679 12.0993 9.45834 7.70004C9.88975 3.30082 14.2678 9.73755 18.0608 10.1409C21.8538 10.5445 27.391 5.16249 26.9594 9.56172Z" fill="#5BBD4F"/>
<path d="M22.5021 9.62899C22.8822 5.55801 21.2416 2.07585 18.8376 1.85139C16.4336 1.62692 14.1767 4.74514 13.7965 8.81613C13.4164 12.8871 15.0571 16.3693 17.461 16.5937C19.865 16.8182 22.122 13.7 22.5021 9.62899Z" fill="#64CC56"/>
<path d="M18.5766 4.87979C18.0059 4.82446 17.4961 5.24172 17.4401 5.81333L16.3925 16.4948C16.3365 17.0664 16.7545 17.5753 17.3261 17.6314C17.3606 17.6347 17.3949 17.6364 17.4288 17.6364C17.9576 17.6364 18.4101 17.2349 18.4628 16.6977L19.5103 6.0162C19.5663 5.44474 19.1484 4.93581 18.5766 4.87979Z" fill="#50A645"/>
<path d="M69.9741 19.02C65.5328 23.3682 57.8128 22.8601 52.7313 17.8851C47.6498 12.9101 47.1307 5.35239 51.5721 1.00434C56.0135 -3.34372 55.2604 7.60026 59.2486 11.5047C63.2368 15.4092 74.4155 14.6718 69.9741 19.02Z" fill="#50A645"/>
<path d="M64.6045 15.2578C68.7661 11.2916 70.1649 6.00427 67.7288 3.44815C65.2927 0.892029 59.9443 2.03508 55.7827 6.00123C51.6211 9.96737 50.2223 15.2547 52.6584 17.8108C55.0945 20.367 60.443 19.2239 64.6045 15.2578Z" fill="#64CC56"/>
<path d="M67.6032 3.32535C66.2584 2.0088 64.1038 1.75101 61.7629 2.4054C62.3152 2.61438 62.8098 2.91835 63.2255 3.32535C65.7492 5.79607 64.4659 11.0584 60.3591 15.0789C58.4408 16.9569 56.2457 18.2315 54.1938 18.8052C56.993 19.8647 61.3067 18.437 64.7367 15.0789C68.8436 11.0583 70.1269 5.79607 67.6032 3.32535Z" fill="#5BBD4F"/>
<path d="M64.4077 6.59219C64.0015 6.18602 63.343 6.18602 62.937 6.59219L51.3466 18.1825C50.9404 18.5887 50.9404 19.2473 51.3466 19.6533C51.5496 19.8563 51.8159 19.9579 52.082 19.9579C52.3481 19.9579 52.6144 19.8564 52.8174 19.6533L64.4077 8.06295C64.8139 7.65692 64.8139 6.99836 64.4077 6.59219Z" fill="#50A645"/>
<path d="M26.5733 32.7348C25.1538 46.632 18.22 66.9412 12.2874 66.3352C6.35492 65.7292 3.66995 44.4377 5.0894 30.5404C6.50884 16.6431 11.4951 15.4029 17.4276 16.0089C23.3601 16.6149 27.9927 18.8375 26.5733 32.7348Z" fill="#FB8C00"/>
<path d="M17.4278 16.0089C16.0172 15.8648 14.6604 15.8257 13.3922 16.0356C19.204 16.6799 23.6872 19.0334 22.2877 32.7348C21.0639 44.7159 15.7417 61.4607 10.4958 65.4629C11.0553 65.9671 11.6527 66.2705 12.2875 66.3354C18.2202 66.9414 25.1539 46.6321 26.5733 32.7349C27.9928 18.8375 23.3603 16.6149 17.4278 16.0089Z" fill="#F57C00"/>
<path d="M48.084 45.0312C33.7781 59.337 7.41528 75.7983 1.30817 69.6914C-4.79894 63.5844 11.6625 37.2215 25.9685 22.9156C40.2744 8.60961 47.0075 11.778 53.1146 17.8851C59.2217 23.9922 62.3898 30.7253 48.084 45.0312Z" fill="#FF9800"/>
<path d="M54.7156 37.2597C54.3412 37.8075 53.9349 38.3705 53.4939 38.9474C52.0684 40.8139 50.2823 42.833 48.0843 45.0309C47.305 45.8102 46.491 46.5951 45.6451 47.3828C45.1237 47.8695 44.5898 48.3563 44.0462 48.843C41.0537 51.5249 37.745 54.2054 34.3253 56.7293C33.7276 57.1716 33.1258 57.6084 32.5212 58.0383C28.4636 60.9352 24.3021 63.5755 20.3708 65.7069C19.6718 66.0868 18.9813 66.4488 18.299 66.7941C10.5569 70.7088 3.98667 72.3687 1.30892 69.6909C-1.29395 67.088 0.202318 60.8048 3.88544 53.3443C4.22103 52.6634 4.57464 51.9728 4.9449 51.2753C7.04162 47.3287 9.67222 43.1297 12.5746 39.0209C13.0114 38.4038 13.4538 37.7881 13.9017 37.1751C16.3562 33.8193 18.9674 30.5605 21.5897 27.5888C22.0875 27.0258 22.5853 26.4738 23.0818 25.933C24.0483 24.8791 25.0135 23.871 25.9689 22.9155C28.0892 20.7952 30.0431 19.0591 31.8528 17.6585C32.4338 17.2092 33.001 16.7946 33.5529 16.4132C42.8869 9.96359 48.2036 12.9728 53.1153 17.8845C57.9938 22.763 60.9961 28.0408 54.7156 37.2597Z" fill="#FF9800"/>
<path d="M53.1148 17.8851C49.6877 14.458 46.0629 11.9569 41.0138 12.9495C43.9856 13.5813 46.4548 15.5108 48.8292 17.8851C54.9363 23.9922 58.1045 30.7253 43.7987 45.0313C32.5108 56.3192 13.7166 68.9488 3.28918 70.7754C11.8174 73.011 34.9964 58.1193 48.0844 45.0313C62.3902 30.7253 59.2219 23.9921 53.1148 17.8851Z" fill="#FB8C00"/>
<path d="M54.7158 37.2598C54.3414 37.8075 53.9351 38.3705 53.4941 38.9474C40.5435 30.6049 34.5904 22.9266 31.853 17.6585C32.434 17.2092 33.0012 16.7946 33.5531 16.4132C35.7316 20.7065 41.2494 28.6025 54.7158 37.2598Z" fill="#EF6C00"/>
<path d="M45.6452 47.3828C45.1238 47.8696 44.5899 48.3563 44.0463 48.843C37.4885 44.8174 32.0664 40.5532 27.9229 36.1643C25.198 33.2785 23.0736 30.3997 21.5898 27.5888C22.0876 27.0258 22.5854 26.4739 23.0819 25.933C25.1953 30.2402 30.8697 38.4191 45.6452 47.3828Z" fill="#EF6C00"/>
<path d="M34.3254 56.7293C33.7277 57.1717 33.1259 57.6085 32.5213 58.0384C21.2556 50.6763 15.4993 43.8481 12.5747 39.0209C13.0115 38.4038 13.4539 37.7881 13.9018 37.1752C16.5893 41.9108 22.2928 48.997 34.3254 56.7293Z" fill="#EF6C00"/>
<path d="M20.3709 65.7069C19.672 66.0869 18.9814 66.4488 18.2991 66.7941C12.2045 62.4745 7.36622 57.9593 3.88556 53.3443C4.22115 52.6634 4.57476 51.9728 4.94501 51.2753C8.48253 56.2162 13.6689 61.0683 20.3709 65.7069Z" fill="#EF6C00"/>
</g>
<defs>
<clipPath id="clip0">
<rect width="71" height="71" fill="white"/>
</clipPath>
</defs>
</svg>
