<svg width="71" height="71" viewBox="0 0 71 71" fill="none" xmlns="http://www.w3.org/2000/svg">
<g clip-path="url(#clip0)">
<path d="M27.5162 1.49615C25.1625 2.81786 23.5472 4.87953 22.8696 7.08473C25.1051 7.65459 27.7068 7.34853 30.0605 6.02736C32.062 4.90336 33.53 3.24417 34.3409 1.41598C34.5684 0.904084 34.238 0.31527 33.6822 0.242684C31.6991 -0.0167841 29.5182 0.372689 27.5162 1.49615Z" fill="#B4E6A0"/>
<path d="M33.6822 0.242684C31.6991 -0.0167841 29.5182 0.372689 27.5162 1.49615C25.1625 2.81786 23.5472 4.87953 22.8696 7.08473L34.3057 0.666825C34.1822 0.445817 33.9606 0.279519 33.6822 0.242684Z" fill="#96D7A5"/>
<path d="M20.5067 0.448507C20.1226 -0.0520123 19.4076 -0.149516 18.9054 0.233457C18.4033 0.61643 18.3074 1.33362 18.6898 1.83523C18.7223 1.87694 21.8831 6.08855 21.8831 12.2026V15.0177H24.1685V12.2026C24.1685 5.32423 20.6562 0.644056 20.5067 0.448507Z" fill="#96D7A5"/>
<path d="M20.5067 0.448507C20.1226 -0.0520123 19.4076 -0.149516 18.9054 0.233457C18.4033 0.61643 18.3074 1.33362 18.6898 1.83523C18.7045 1.85364 19.316 2.66834 20.0002 4.09027C20.1892 4.48353 20.5906 4.73488 21.0272 4.73488C21.8717 4.73488 22.4199 3.84434 22.0526 3.08327C21.278 1.47663 20.5717 0.534093 20.5067 0.448507Z" fill="#78C3A5"/>
<path d="M45.8381 33.2981C45.8381 45.2867 37.1857 55.0051 22.9887 55.0051C8.79158 55.0051 0.138672 45.2867 0.138672 33.2981C0.138672 21.3094 8.79158 11.5905 22.9887 11.5905C37.1852 11.5905 45.8381 21.3094 45.8381 33.2981Z" fill="#FFAA5F"/>
<path d="M29.8432 50.4354C15.6461 50.4354 6.99372 40.7165 6.99372 28.7278C6.99372 22.7899 9.11118 17.3974 12.9794 13.4783C4.83402 16.8698 0.138672 24.468 0.138672 33.298C0.138672 45.2867 8.79158 55.0051 22.9887 55.0051C30.153 55.0051 35.9003 52.5252 39.8411 48.5319C36.9274 49.7453 33.5841 50.4354 29.8432 50.4354Z" fill="#FF8C5A"/>
<path d="M70.9729 49.293C70.9729 61.281 62.3206 71 48.1235 71C33.9264 71 25.2735 61.281 25.2735 49.293C25.2735 37.3044 33.9264 27.5854 48.1235 27.5854C62.3206 27.5854 70.9729 37.3044 70.9729 49.293Z" fill="#FFAA5F"/>
<path d="M48.1236 29.8703C36.0152 29.8703 27.5584 37.8569 27.5584 49.293C27.5584 60.7285 36.0152 68.7152 48.1236 68.7152C60.2319 68.7152 68.6882 60.7285 68.6882 49.293C68.6882 37.8569 60.2319 29.8703 48.1236 29.8703Z" fill="#FFEDB1"/>
<path d="M45.7567 32.2873C42.5765 32.5922 39.7559 33.5115 37.4088 34.9578C36.7767 35.3467 36.671 36.2253 37.1959 36.7502L45.0303 44.5841C45.7497 45.304 46.9804 44.7943 46.9804 43.7764V33.4275C46.9804 32.7645 46.4165 32.2239 45.7567 32.2873Z" fill="#FFAA5F"/>
<path d="M43.4145 46.1999L35.3461 38.131C34.8684 37.6538 34.084 37.6933 33.6496 38.2106C31.6854 40.5464 30.4211 43.4742 30.01 46.8483C29.926 47.5368 30.4525 48.15 31.1459 48.15H42.6069C43.6247 48.15 44.1344 46.9199 43.4145 46.1999Z" fill="#FFAA5F"/>
<path d="M42.6069 50.4354H31.1459C30.4525 50.4354 29.926 51.0486 30.01 51.7371C30.4211 55.1112 31.6854 58.0391 33.6496 60.3748C34.0845 60.8921 34.8684 60.9317 35.3461 60.4544L43.4145 52.3855C44.1344 51.6656 43.6247 50.4354 42.6069 50.4354Z" fill="#FFAA5F"/>
<path d="M49.2658 33.4275V43.7764C49.2658 44.7943 50.4965 45.304 51.2159 44.5841L59.0503 36.7502C59.5752 36.2253 59.4696 35.3467 58.838 34.9578C56.4908 33.5115 53.6697 32.5922 50.49 32.2873C49.8297 32.2239 49.2658 32.7645 49.2658 33.4275Z" fill="#FFAA5F"/>
<path d="M52.8318 52.3855L60.9007 60.4544C61.378 60.9322 62.1623 60.8921 62.5968 60.3753C64.5609 58.0396 65.8258 55.1112 66.2369 51.7371C66.3209 51.0486 65.7938 50.4354 65.1004 50.4354H53.64C52.6216 50.4354 52.1119 51.6656 52.8318 52.3855Z" fill="#FFAA5F"/>
<path d="M53.6393 48.15H65.1003C65.7937 48.15 66.3202 47.5368 66.2363 46.8483C65.8257 43.4742 64.5608 40.5458 62.5967 38.2106C62.1622 37.6933 61.3779 37.6532 60.9006 38.131L52.8317 46.1999C52.1118 46.9198 52.6215 48.15 53.6393 48.15Z" fill="#FFAA5F"/>
<path d="M49.2658 54.809V65.1579C49.2658 65.8209 49.8302 66.3615 50.49 66.2981C53.6697 65.9926 56.4908 65.0739 58.838 63.6276C59.4696 63.2381 59.5752 62.3601 59.0503 61.8352L51.2159 54.0013C50.4965 53.2814 49.2658 53.7911 49.2658 54.809Z" fill="#FFAA5F"/>
<path d="M45.0303 54.0013L37.1959 61.8352C36.671 62.3601 36.7767 63.2381 37.4088 63.6276C39.7554 65.0739 42.5765 65.9926 45.7567 66.2981C46.4165 66.3615 46.9804 65.8204 46.9804 65.1579V54.809C46.9804 53.7911 45.7502 53.2814 45.0303 54.0013Z" fill="#FFAA5F"/>
<path d="M39.6135 39.1672L45.0304 44.5841C45.7503 45.304 46.9805 44.7943 46.9805 43.7764V36.7713C44.1279 36.9501 41.6243 37.7968 39.6135 39.1672Z" fill="#FFC369"/>
<path d="M49.2658 36.7713V43.7764C49.2658 44.7943 50.4965 45.304 51.2159 44.5841L56.6328 39.1672C54.622 37.7968 52.1183 36.9501 49.2658 36.7713Z" fill="#FFC369"/>
<path d="M58.3976 40.6336L52.8318 46.1999C52.1124 46.9198 52.6222 48.15 53.64 48.15H61.7783C61.534 45.1518 60.3266 42.5788 58.3976 40.6336Z" fill="#FFC369"/>
<path d="M61.7784 50.4354H53.6396C52.6217 50.4354 52.112 51.6656 52.8319 52.3855L58.3978 57.9513C60.3267 56.0067 61.5341 53.4336 61.7784 50.4354Z" fill="#FFC369"/>
<path d="M56.6328 59.4182L51.2159 54.0013C50.4965 53.2814 49.2658 53.7911 49.2658 54.809V61.8141C52.1183 61.6353 54.622 60.7887 56.6328 59.4182Z" fill="#FFC369"/>
<path d="M45.0304 54.0013L39.6135 59.4182C41.6243 60.7887 44.1279 61.6353 46.9805 61.8141V54.809C46.9805 53.7911 45.7503 53.2814 45.0304 54.0013Z" fill="#FFC369"/>
<path d="M42.6069 50.4354H34.4681C34.7124 53.4336 35.9198 56.0067 37.8487 57.9519L43.4146 52.3855C44.1345 51.6656 43.6248 50.4354 42.6069 50.4354Z" fill="#FFC369"/>
<path d="M37.8487 40.6336C35.9198 42.5788 34.7124 45.1518 34.4681 48.15H42.6069C43.6248 48.15 44.1345 46.9198 43.4146 46.1999L37.8487 40.6336Z" fill="#FFC369"/>
<path d="M50.9798 49.293C50.9798 50.8704 49.7009 52.1488 48.1235 52.1488C46.5461 52.1488 45.2672 50.8704 45.2672 49.293C45.2672 47.715 46.5461 46.4367 48.1235 46.4367C49.7009 46.4367 50.9798 47.715 50.9798 49.293Z" fill="#FFF6D8"/>
</g>
<defs>
<clipPath id="clip0">
<rect width="71" height="71" fill="white"/>
</clipPath>
</defs>
</svg>
