<svg width="71" height="71" viewBox="0 0 71 71" fill="none" xmlns="http://www.w3.org/2000/svg">
<path d="M32.2448 18.145C30.4225 16.6675 28.494 15.3117 26.5128 14.1153L26.4859 14.1057C21.7715 13.4396 17.0042 15.4393 13.4068 19.5906C13.2519 19.7693 13.233 20.0238 13.3599 20.2236C13.455 20.3736 13.6098 20.4581 13.7762 20.4581C13.8218 20.4581 13.8683 20.4517 13.9146 20.4387C18.7867 19.0703 23.8259 18.6493 28.8922 19.1866L28.9092 19.1884L28.9251 19.1825C29.9915 18.7778 31.0975 18.4711 32.2126 18.2708L32.366 18.2432L32.2448 18.145Z" fill="#5EC62E"/>
<path d="M16.2612 19.5904C19.0389 16.3849 22.5143 14.4638 26.1242 14.0607C21.5283 13.544 16.9121 15.5451 13.4066 19.5904C13.2517 19.7691 13.2328 20.0236 13.3597 20.2234C13.4549 20.3735 13.6096 20.4579 13.776 20.4579C13.8216 20.4579 13.8681 20.4516 13.9144 20.4385C14.6505 20.2318 15.3907 20.0494 16.134 19.8859C16.1447 19.7797 16.1868 19.6762 16.2612 19.5904Z" fill="#4EAA18"/>
<path d="M34.0635 17.9434C32.9632 14.8585 31.492 11.9054 29.6911 9.16579L29.6754 9.14874C24.8276 5.35315 18.2773 4.59823 11.704 7.0774C11.4334 7.17946 11.2712 7.43337 11.2909 7.72444C11.3096 8.00234 11.4945 8.22144 11.762 8.28287C19.1598 9.98285 26.2138 13.4311 32.1611 18.2549L32.1865 18.2754L32.2186 18.2697C32.8041 18.1645 33.4042 18.0867 34.0022 18.0386L34.095 18.0312L34.0635 17.9434Z" fill="#5EC62E"/>
<path d="M33.0575 15.3985C27.5668 11.396 21.2728 8.50929 14.707 7.00055C14.4396 6.93912 14.2546 6.72001 14.2359 6.44212C14.2322 6.38595 14.237 6.33187 14.2463 6.27932C13.4017 6.49204 12.553 6.75718 11.7039 7.07751C11.4333 7.17957 11.2711 7.43348 11.2908 7.72455C11.3095 8.00245 11.4944 8.22155 11.7619 8.28298C19.1597 9.98296 26.2137 13.4312 32.161 18.255L32.1864 18.2755L32.2186 18.2698C32.804 18.1646 33.4041 18.0868 34.0022 18.0387L34.0949 18.0313L34.0636 17.9437C33.757 17.0842 33.4207 16.2355 33.0575 15.3985Z" fill="#4EAA18"/>
<path d="M35.57 11.2044L35.5729 11.19L35.57 11.1756C34.3205 5.07474 29.5095 0.89878 22.7005 0.00462539C22.4679 -0.0253277 22.2539 0.0937912 22.1567 0.309842C22.0621 0.520206 22.1123 0.75262 22.2848 0.902385C27.5435 5.46843 31.57 11.3776 33.9291 17.9913L33.9474 18.0429L34.0019 18.0385C34.4671 18.0011 34.9441 17.981 35.4196 17.9788L35.4773 17.9785L35.5121 17.8134C35.5324 17.7187 35.5525 17.6238 35.5701 17.5297L35.5726 17.5166L35.5701 17.5036C35.1616 15.3185 35.1614 13.1992 35.57 11.2044Z" fill="#5EC62E"/>
<path d="M35.2641 14.3099C32.8526 9.18568 29.4006 4.60342 25.1394 0.903385C25.0032 0.785237 24.9447 0.615364 24.972 0.44563C24.2426 0.257452 23.4856 0.108797 22.7007 0.00562485C22.468 -0.0243282 22.254 0.0947907 22.1568 0.310841C22.0623 0.521206 22.1125 0.753619 22.285 0.903385C27.5437 5.46942 31.5701 11.3786 33.9292 17.9923L33.9475 18.0439L34.002 18.0395C34.4673 18.0021 34.9443 17.982 35.4198 17.9798L35.4775 17.9795L35.5123 17.8144C35.5325 17.7197 35.5526 17.6248 35.5703 17.5307L35.5728 17.5176L35.5703 17.5046C35.3677 16.421 35.2657 15.3538 35.2641 14.3099Z" fill="#4EAA18"/>
<path d="M57.5934 19.5904C51.4835 12.5397 44.502 14.1172 44.4874 14.1151C42.5061 15.3116 40.5776 16.6674 38.7554 18.1449L38.6345 18.2431L38.7879 18.2707C39.9028 18.4711 41.0088 18.7778 42.0752 19.1823L42.0912 19.1883L42.1081 19.1865C47.1742 18.6489 52.2135 19.0701 57.0857 20.4385C57.1322 20.4514 57.1785 20.458 57.2241 20.458C57.3905 20.458 57.5451 20.3737 57.6404 20.2235C57.7672 20.0236 57.7483 19.7692 57.5934 19.5904Z" fill="#5EC62E"/>
<path d="M44.4876 14.1151C42.5062 15.3116 40.5777 16.6674 38.7556 18.1449L38.6346 18.2431L38.788 18.2707C39.9029 18.4711 41.009 18.7778 42.0754 19.1823L42.0913 19.1883L42.1082 19.1865C42.1805 19.1789 42.2527 19.1733 42.325 19.1661C44.7416 17.3806 47.3264 15.8263 50.0276 14.5275C47.0402 13.6435 44.8811 14.1026 44.4876 14.1151Z" fill="#4EAA18"/>
<path d="M59.2961 7.07736C48.1542 2.87519 41.3238 9.15979 41.309 9.16575C39.508 11.9054 38.0369 14.8585 36.9365 17.9434L36.9052 18.031L36.998 18.0384C37.5959 18.0866 38.1959 18.1644 38.7815 18.2695L38.8137 18.2752L38.8391 18.2547C44.7864 13.4309 51.8403 9.98267 59.2382 8.28269C59.5056 8.22126 59.6906 8.00216 59.7093 7.72426C59.7289 7.43333 59.5668 7.17942 59.2961 7.07736Z" fill="#5EC62E"/>
<path d="M44.0825 9.75944C44.4671 9.15178 44.8612 8.88386 44.9847 8.77001C47.5459 6.76468 50.079 5.9877 53.3429 5.70842C48.8902 5.34219 44.6956 6.50953 41.3246 9.14886C41 9.7127 38.7452 12.873 36.9365 17.9434L36.9052 18.0311L36.998 18.0384C37.5959 18.0867 38.1959 18.1645 38.7815 18.2696L38.8137 18.2753L38.8391 18.2547C39.364 17.829 39.898 17.4145 40.4396 17.0104C41.4113 14.4826 42.6329 12.0499 44.0825 9.75944Z" fill="#4EAA18"/>
<path d="M48.8435 0.309872C48.7463 0.0938218 48.5322 -0.0251584 48.2996 0.00465599C38.9462 1.23301 33.5879 8.71628 35.5084 17.922L35.5202 17.9784L35.578 17.9787C36.0524 17.9808 36.5303 18.0009 36.9983 18.0383L37.0528 18.0428L37.0711 17.9912C39.4302 11.3774 43.4566 5.46832 48.7154 0.902277C48.8877 0.752651 48.9381 0.520237 48.8435 0.309872Z" fill="#5EC62E"/>
<path d="M48.8435 0.309872C48.7463 0.0938218 48.5322 -0.0251584 48.2996 0.00465599C38.9462 1.23301 33.5879 8.71628 35.5084 17.922L35.5202 17.9784L35.578 17.9787C36.0524 17.9808 36.5303 18.0009 36.9983 18.0383L37.0528 18.0428L37.0711 17.9912C39.4302 11.3774 43.4566 5.46832 48.7154 0.902277C48.8877 0.752651 48.9381 0.520237 48.8435 0.309872Z" fill="#5EC62E"/>
<path d="M48.8764 0.411519C48.8686 0.377405 48.8585 0.343292 48.8435 0.309872C48.7463 0.0938218 48.5322 -0.0251584 48.2996 0.00465599C38.9462 1.23301 33.5879 8.71628 35.5084 17.922L35.5202 17.9784L35.578 17.9787C36.0524 17.9808 36.5303 18.0009 36.9983 18.0383L37.0528 18.0428L37.0711 17.9912C37.3299 17.2659 37.6098 16.5496 37.908 15.8421C37.2328 8.42688 41.3788 2.30355 48.8764 0.411519Z" fill="#4EAA18"/>
<path d="M35.5001 17.7041C25.0903 17.7041 16.5732 26.2211 16.5732 36.6308V52.0733C16.5734 62.4829 25.0903 71 35.5001 71C45.9099 71 54.4268 62.4829 54.4268 52.0733V36.6308C54.4268 26.2211 45.9099 17.7041 35.5001 17.7041Z" fill="#FFC850"/>
<path d="M19.4277 52.0733V36.6308C19.4277 26.7011 27.1775 18.4938 36.9272 17.758C36.4559 17.7225 35.98 17.7041 35.5 17.7041C25.0902 17.7041 16.5733 26.2211 16.5733 36.6308V52.0733C16.5733 62.4829 25.0902 71 35.5 71C35.98 71 36.4559 70.9816 36.9272 70.9461C27.1775 70.2103 19.4277 62.003 19.4277 52.0733Z" fill="#F9B428"/>
<path d="M51.3781 62.3407C51.7807 61.7216 52.1477 61.0777 52.4772 60.412L46.9541 54.8889L54.4269 47.416V43.1358L46.9814 35.6902L53.0699 29.614C52.7858 28.9081 52.4603 28.2227 52.0963 27.5611L45.4677 34.1763L37.3274 26.036L43.7469 19.6076C43.0555 19.2702 42.341 18.9736 41.6063 18.7212L35.8135 24.5221L29.8593 18.568C29.1097 18.8037 28.3798 19.0855 27.6729 19.4093L34.3007 26.0371L26.2073 34.1419L19.1665 27.1012C18.7875 27.7465 18.4458 28.4159 18.1442 29.1065L24.6945 35.6569L16.6009 43.7617L16.5735 43.7343V46.8189L16.6019 46.7903L24.7069 54.8953L18.7447 60.8454C19.0886 61.4975 19.4692 62.1277 19.8843 62.7327L26.2207 56.409L34.3136 64.5019L28.9803 69.8353C29.7369 70.1152 30.5161 70.3474 31.3139 70.5294L35.8275 66.0157L40.2138 70.4021C40.9937 70.2003 41.7543 69.949 42.4925 69.6531L37.3414 64.502L45.4405 56.4029L51.3781 62.3407ZM53.5393 45.2759L45.4402 53.375L37.3586 45.2933L45.4659 37.2024L53.5393 45.2759ZM35.8143 27.5509L43.9521 35.6887L35.8448 43.7796L27.7209 35.6557L35.8143 27.5509ZM18.1145 45.2755L26.2081 37.1707L34.3294 45.292L26.2221 53.3829L18.1145 45.2755ZM35.8272 62.9881L27.7359 54.8968L35.8432 46.8058L43.9263 54.889L35.8272 62.9881Z" fill="#ED9D0F"/>
</svg>
