<svg width="71" height="71" viewBox="0 0 71 71" fill="none" xmlns="http://www.w3.org/2000/svg">
<g clip-path="url(#clip0)">
<path d="M7.91761 51.6235C-2.6392 41.0667 -2.6392 23.9509 7.91761 13.394L13.394 7.91761C23.9509 -2.6392 41.0667 -2.6392 51.6235 7.91761C62.1803 18.4744 62.1803 35.5903 51.6235 46.1471L46.1471 51.6235C35.5903 62.1802 18.4744 62.1802 7.91761 51.6235Z" fill="#97DE3D"/>
<path d="M51.7896 8.0786C47.8945 4.18635 41.3576 2.38931 34.3969 4.03187C27.7945 5.59027 21.01 9.59442 15.2936 15.3066C9.57695 21.0189 5.56989 27.798 4.01025 34.3955C2.36615 41.3506 4.16459 47.8833 8.05988 51.7754C10.7656 54.4792 15.5107 56.7089 20.0782 56.711L24.3798 54.3811L44.3113 45.1466C44.4483 45.0129 44.601 44.8638 44.7367 44.7282C50.4533 39.016 54.1403 31.4972 55.6999 24.8999C57.344 17.9448 55.6848 11.971 51.7896 8.0786Z" fill="#59C36A"/>
<path d="M39.5056 39.5125C51.5722 27.4459 57.1984 13.5084 52.0722 8.38222C46.946 3.256 33.0085 8.88227 20.9419 20.9488C8.87538 33.0154 3.24913 46.9529 8.37534 52.0791C13.5016 57.2053 27.4391 51.5791 39.5056 39.5125Z" fill="#97DE3D"/>
<path d="M33.7324 33.7393C45.799 21.6727 54.01 10.32 52.0722 8.38217C50.1344 6.44437 38.7816 14.6554 26.715 26.7219C14.6485 38.7885 6.4375 50.1413 8.3753 52.0791C10.3131 54.0169 21.6659 45.8059 33.7324 33.7393Z" fill="#59C36A"/>
<path d="M52.0775 8.38338L8.38339 52.0775C18.972 62.1774 35.744 62.0264 46.1471 51.6233L51.6235 46.1469C62.0264 35.744 62.1775 18.9719 52.0775 8.38338Z" fill="#59C36A"/>
<path d="M8.37881 52.0819C11.1278 54.6456 15.6847 56.7089 20.078 56.7108L24.3796 54.381L44.3112 45.1464C44.4483 45.0127 44.601 44.8637 44.7365 44.728C50.4531 39.0159 54.1401 31.4971 55.6998 24.8998C57.3021 18.1212 55.7658 12.2756 52.0808 8.37978L8.37881 52.0819Z" fill="#00A66C"/>
<path d="M52.082 8.37883L8.37848 52.0824C13.5055 57.2094 27.4452 51.5823 39.5135 39.5139C51.5818 27.4455 57.209 13.5058 52.082 8.37883Z" fill="#59C36A"/>
<path d="M52.082 8.37883L8.37848 52.0824C10.3166 54.0205 21.671 45.8082 33.7395 33.7398C45.808 21.6715 54.0201 10.3169 52.082 8.37883Z" fill="#00A66C"/>
<path d="M16.8405 43.8467V43.9205C16.8405 58.8521 28.9886 71 43.9203 71C58.852 71 71 58.8521 71 43.9203V43.8466H65.1447L43.4655 49.6446L22.6648 43.8467H16.8405Z" fill="#97DE3D"/>
<path d="M65.1446 43.8467L43.9203 49.523V71C58.852 71 70.9999 58.8521 70.9999 43.9203V43.8466H65.1446V43.8467Z" fill="#59C36A"/>
<path d="M22.6951 43.8476V43.9054C22.6951 55.609 32.2168 65.1305 43.9202 65.1305C55.6237 65.1305 65.1454 55.6089 65.1454 43.9054V43.8476H22.6951Z" fill="#FC445F"/>
<path d="M43.9202 43.8476V65.1305C55.6237 65.1305 65.1453 55.6089 65.1453 43.9054V43.8476H43.9202Z" fill="#E1105A"/>
<path d="M36.2822 51.8346C35.4671 52.6497 34.1457 52.6497 33.3306 51.8346C32.5155 51.0195 32.5155 49.6981 33.3306 48.883C34.1457 48.0679 37.5758 47.5895 37.5758 47.5895C37.5758 47.5895 37.0973 51.0195 36.2822 51.8346Z" fill="#E1105A"/>
<path d="M41.8331 54.2983C41.8331 55.4509 42.7676 56.3854 43.9202 56.3854V50.3817C43.9202 50.3817 41.8331 53.1456 41.8331 54.2983Z" fill="#E1105A"/>
<path d="M43.9202 50.3817V56.3854C45.0729 56.3854 46.0074 55.4509 46.0074 54.2983C46.0074 53.1456 43.9202 50.3817 43.9202 50.3817Z" fill="#A1073D"/>
<path d="M51.5585 51.8346C52.3736 52.6497 53.695 52.6497 54.5101 51.8346C55.3252 51.0195 55.3252 49.6981 54.5101 48.883C53.695 48.0679 50.2649 47.5895 50.2649 47.5895C50.2649 47.5895 50.7433 51.0195 51.5585 51.8346Z" fill="#A1073D"/>
</g>
<defs>
<clipPath id="clip0">
<rect width="71" height="71" fill="white"/>
</clipPath>
</defs>
</svg>
